<mxfile host="app.diagrams.net" agent="Mozilla/5.0 (X11; Linux x86_64) AppleWebKit/537.36 (KHTML, like Gecko) Chrome/135.0.0.0 Safari/537.36 Edg/135.0.0.0" version="26.2.10">
  <diagram name="Page-1" id="fSDzbSg4ITsIo_7JX8Ku">
    <mxGraphModel dx="3723" dy="2461" grid="0" gridSize="10" guides="1" tooltips="1" connect="1" arrows="1" fold="1" page="0" pageScale="1" pageWidth="850" pageHeight="1100" math="0" shadow="0">
      <root>
        <mxCell id="0" />
        <mxCell id="1" parent="0" />
        <mxCell id="FVcaYwHXagqDAu146TD7-14" value="User" style="shape=table;startSize=30;container=1;collapsible=0;childLayout=tableLayout;fillColor=light-dark(#DAE8FC,#0000FF);gradientColor=light-dark(#7EA6E0,#000033);strokeColor=#6c8ebf;fontStyle=1" vertex="1" parent="1">
          <mxGeometry x="177" y="-758" width="150" height="510" as="geometry" />
        </mxCell>
        <mxCell id="FVcaYwHXagqDAu146TD7-15" value="" style="shape=tableRow;horizontal=0;startSize=0;swimlaneHead=0;swimlaneBody=0;strokeColor=inherit;top=0;left=0;bottom=0;right=0;collapsible=0;dropTarget=0;fillColor=none;points=[[0,0.5],[1,0.5]];portConstraint=eastwest;" vertex="1" parent="FVcaYwHXagqDAu146TD7-14">
          <mxGeometry y="30" width="150" height="40" as="geometry" />
        </mxCell>
        <mxCell id="FVcaYwHXagqDAu146TD7-16" value="id" style="shape=partialRectangle;html=1;whiteSpace=wrap;connectable=0;strokeColor=inherit;overflow=hidden;fillColor=none;top=0;left=0;bottom=0;right=0;pointerEvents=1;" vertex="1" parent="FVcaYwHXagqDAu146TD7-15">
          <mxGeometry width="150" height="40" as="geometry">
            <mxRectangle width="150" height="40" as="alternateBounds" />
          </mxGeometry>
        </mxCell>
        <mxCell id="FVcaYwHXagqDAu146TD7-17" value="" style="shape=tableRow;horizontal=0;startSize=0;swimlaneHead=0;swimlaneBody=0;strokeColor=inherit;top=0;left=0;bottom=0;right=0;collapsible=0;dropTarget=0;fillColor=none;points=[[0,0.5],[1,0.5]];portConstraint=eastwest;" vertex="1" parent="FVcaYwHXagqDAu146TD7-14">
          <mxGeometry y="70" width="150" height="40" as="geometry" />
        </mxCell>
        <mxCell id="FVcaYwHXagqDAu146TD7-18" value="email" style="shape=partialRectangle;html=1;whiteSpace=wrap;connectable=0;strokeColor=inherit;overflow=hidden;fillColor=none;top=0;left=0;bottom=0;right=0;pointerEvents=1;" vertex="1" parent="FVcaYwHXagqDAu146TD7-17">
          <mxGeometry width="150" height="40" as="geometry">
            <mxRectangle width="150" height="40" as="alternateBounds" />
          </mxGeometry>
        </mxCell>
        <mxCell id="FVcaYwHXagqDAu146TD7-19" value="" style="shape=tableRow;horizontal=0;startSize=0;swimlaneHead=0;swimlaneBody=0;strokeColor=inherit;top=0;left=0;bottom=0;right=0;collapsible=0;dropTarget=0;fillColor=none;points=[[0,0.5],[1,0.5]];portConstraint=eastwest;" vertex="1" parent="FVcaYwHXagqDAu146TD7-14">
          <mxGeometry y="110" width="150" height="40" as="geometry" />
        </mxCell>
        <mxCell id="FVcaYwHXagqDAu146TD7-20" value="name" style="shape=partialRectangle;html=1;whiteSpace=wrap;connectable=0;strokeColor=inherit;overflow=hidden;fillColor=none;top=0;left=0;bottom=0;right=0;pointerEvents=1;" vertex="1" parent="FVcaYwHXagqDAu146TD7-19">
          <mxGeometry width="150" height="40" as="geometry">
            <mxRectangle width="150" height="40" as="alternateBounds" />
          </mxGeometry>
        </mxCell>
        <mxCell id="FVcaYwHXagqDAu146TD7-215" style="shape=tableRow;horizontal=0;startSize=0;swimlaneHead=0;swimlaneBody=0;strokeColor=inherit;top=0;left=0;bottom=0;right=0;collapsible=0;dropTarget=0;fillColor=none;points=[[0,0.5],[1,0.5]];portConstraint=eastwest;" vertex="1" parent="FVcaYwHXagqDAu146TD7-14">
          <mxGeometry y="150" width="150" height="40" as="geometry" />
        </mxCell>
        <mxCell id="FVcaYwHXagqDAu146TD7-216" value="telephone" style="shape=partialRectangle;html=1;whiteSpace=wrap;connectable=0;strokeColor=inherit;overflow=hidden;fillColor=none;top=0;left=0;bottom=0;right=0;pointerEvents=1;" vertex="1" parent="FVcaYwHXagqDAu146TD7-215">
          <mxGeometry width="150" height="40" as="geometry">
            <mxRectangle width="150" height="40" as="alternateBounds" />
          </mxGeometry>
        </mxCell>
        <mxCell id="FVcaYwHXagqDAu146TD7-217" style="shape=tableRow;horizontal=0;startSize=0;swimlaneHead=0;swimlaneBody=0;strokeColor=inherit;top=0;left=0;bottom=0;right=0;collapsible=0;dropTarget=0;fillColor=none;points=[[0,0.5],[1,0.5]];portConstraint=eastwest;" vertex="1" parent="FVcaYwHXagqDAu146TD7-14">
          <mxGeometry y="190" width="150" height="40" as="geometry" />
        </mxCell>
        <mxCell id="FVcaYwHXagqDAu146TD7-218" value="document_type" style="shape=partialRectangle;html=1;whiteSpace=wrap;connectable=0;strokeColor=inherit;overflow=hidden;fillColor=none;top=0;left=0;bottom=0;right=0;pointerEvents=1;" vertex="1" parent="FVcaYwHXagqDAu146TD7-217">
          <mxGeometry width="150" height="40" as="geometry">
            <mxRectangle width="150" height="40" as="alternateBounds" />
          </mxGeometry>
        </mxCell>
        <mxCell id="FVcaYwHXagqDAu146TD7-219" style="shape=tableRow;horizontal=0;startSize=0;swimlaneHead=0;swimlaneBody=0;strokeColor=inherit;top=0;left=0;bottom=0;right=0;collapsible=0;dropTarget=0;fillColor=none;points=[[0,0.5],[1,0.5]];portConstraint=eastwest;" vertex="1" parent="FVcaYwHXagqDAu146TD7-14">
          <mxGeometry y="230" width="150" height="40" as="geometry" />
        </mxCell>
        <mxCell id="FVcaYwHXagqDAu146TD7-220" value="document_number" style="shape=partialRectangle;html=1;whiteSpace=wrap;connectable=0;strokeColor=inherit;overflow=hidden;fillColor=none;top=0;left=0;bottom=0;right=0;pointerEvents=1;" vertex="1" parent="FVcaYwHXagqDAu146TD7-219">
          <mxGeometry width="150" height="40" as="geometry">
            <mxRectangle width="150" height="40" as="alternateBounds" />
          </mxGeometry>
        </mxCell>
        <mxCell id="FVcaYwHXagqDAu146TD7-21" value="" style="shape=tableRow;horizontal=0;startSize=0;swimlaneHead=0;swimlaneBody=0;strokeColor=inherit;top=0;left=0;bottom=0;right=0;collapsible=0;dropTarget=0;fillColor=none;points=[[0,0.5],[1,0.5]];portConstraint=eastwest;" vertex="1" parent="FVcaYwHXagqDAu146TD7-14">
          <mxGeometry y="270" width="150" height="40" as="geometry" />
        </mxCell>
        <mxCell id="FVcaYwHXagqDAu146TD7-22" value="password" style="shape=partialRectangle;html=1;whiteSpace=wrap;connectable=0;strokeColor=inherit;overflow=hidden;fillColor=none;top=0;left=0;bottom=0;right=0;pointerEvents=1;" vertex="1" parent="FVcaYwHXagqDAu146TD7-21">
          <mxGeometry width="150" height="40" as="geometry">
            <mxRectangle width="150" height="40" as="alternateBounds" />
          </mxGeometry>
        </mxCell>
        <mxCell id="FVcaYwHXagqDAu146TD7-158" style="shape=tableRow;horizontal=0;startSize=0;swimlaneHead=0;swimlaneBody=0;strokeColor=inherit;top=0;left=0;bottom=0;right=0;collapsible=0;dropTarget=0;fillColor=none;points=[[0,0.5],[1,0.5]];portConstraint=eastwest;" vertex="1" parent="FVcaYwHXagqDAu146TD7-14">
          <mxGeometry y="310" width="150" height="40" as="geometry" />
        </mxCell>
        <mxCell id="FVcaYwHXagqDAu146TD7-159" value="role" style="shape=partialRectangle;html=1;whiteSpace=wrap;connectable=0;strokeColor=inherit;overflow=hidden;fillColor=none;top=0;left=0;bottom=0;right=0;pointerEvents=1;" vertex="1" parent="FVcaYwHXagqDAu146TD7-158">
          <mxGeometry width="150" height="40" as="geometry">
            <mxRectangle width="150" height="40" as="alternateBounds" />
          </mxGeometry>
        </mxCell>
        <mxCell id="FVcaYwHXagqDAu146TD7-23" value="" style="shape=tableRow;horizontal=0;startSize=0;swimlaneHead=0;swimlaneBody=0;strokeColor=inherit;top=0;left=0;bottom=0;right=0;collapsible=0;dropTarget=0;fillColor=none;points=[[0,0.5],[1,0.5]];portConstraint=eastwest;" vertex="1" parent="FVcaYwHXagqDAu146TD7-14">
          <mxGeometry y="350" width="150" height="40" as="geometry" />
        </mxCell>
        <mxCell id="FVcaYwHXagqDAu146TD7-24" value="products_added" style="shape=partialRectangle;html=1;whiteSpace=wrap;connectable=0;strokeColor=inherit;overflow=hidden;fillColor=none;top=0;left=0;bottom=0;right=0;pointerEvents=1;" vertex="1" parent="FVcaYwHXagqDAu146TD7-23">
          <mxGeometry width="150" height="40" as="geometry">
            <mxRectangle width="150" height="40" as="alternateBounds" />
          </mxGeometry>
        </mxCell>
        <mxCell id="FVcaYwHXagqDAu146TD7-25" value="" style="shape=tableRow;horizontal=0;startSize=0;swimlaneHead=0;swimlaneBody=0;strokeColor=inherit;top=0;left=0;bottom=0;right=0;collapsible=0;dropTarget=0;fillColor=none;points=[[0,0.5],[1,0.5]];portConstraint=eastwest;" vertex="1" parent="FVcaYwHXagqDAu146TD7-14">
          <mxGeometry y="390" width="150" height="40" as="geometry" />
        </mxCell>
        <mxCell id="FVcaYwHXagqDAu146TD7-26" value="photos_added" style="shape=partialRectangle;html=1;whiteSpace=wrap;connectable=0;strokeColor=inherit;overflow=hidden;fillColor=none;top=0;left=0;bottom=0;right=0;pointerEvents=1;" vertex="1" parent="FVcaYwHXagqDAu146TD7-25">
          <mxGeometry width="150" height="40" as="geometry">
            <mxRectangle width="150" height="40" as="alternateBounds" />
          </mxGeometry>
        </mxCell>
        <mxCell id="FVcaYwHXagqDAu146TD7-27" value="" style="shape=tableRow;horizontal=0;startSize=0;swimlaneHead=0;swimlaneBody=0;strokeColor=inherit;top=0;left=0;bottom=0;right=0;collapsible=0;dropTarget=0;fillColor=none;points=[[0,0.5],[1,0.5]];portConstraint=eastwest;" vertex="1" parent="FVcaYwHXagqDAu146TD7-14">
          <mxGeometry y="430" width="150" height="40" as="geometry" />
        </mxCell>
        <mxCell id="FVcaYwHXagqDAu146TD7-28" value="posts" style="shape=partialRectangle;html=1;whiteSpace=wrap;connectable=0;strokeColor=inherit;overflow=hidden;fillColor=none;top=0;left=0;bottom=0;right=0;pointerEvents=1;" vertex="1" parent="FVcaYwHXagqDAu146TD7-27">
          <mxGeometry width="150" height="40" as="geometry">
            <mxRectangle width="150" height="40" as="alternateBounds" />
          </mxGeometry>
        </mxCell>
        <mxCell id="FVcaYwHXagqDAu146TD7-354" style="shape=tableRow;horizontal=0;startSize=0;swimlaneHead=0;swimlaneBody=0;strokeColor=inherit;top=0;left=0;bottom=0;right=0;collapsible=0;dropTarget=0;fillColor=none;points=[[0,0.5],[1,0.5]];portConstraint=eastwest;" vertex="1" parent="FVcaYwHXagqDAu146TD7-14">
          <mxGeometry y="470" width="150" height="40" as="geometry" />
        </mxCell>
        <mxCell id="FVcaYwHXagqDAu146TD7-355" value="created_campaigns" style="shape=partialRectangle;html=1;whiteSpace=wrap;connectable=0;strokeColor=inherit;overflow=hidden;fillColor=none;top=0;left=0;bottom=0;right=0;pointerEvents=1;" vertex="1" parent="FVcaYwHXagqDAu146TD7-354">
          <mxGeometry width="150" height="40" as="geometry">
            <mxRectangle width="150" height="40" as="alternateBounds" />
          </mxGeometry>
        </mxCell>
        <mxCell id="FVcaYwHXagqDAu146TD7-170" value="campaign" style="shape=table;startSize=30;container=1;collapsible=0;childLayout=tableLayout;fillColor=light-dark(#F8CECC,#0000FF);strokeColor=light-dark(#B85450,#FF0000);gradientColor=light-dark(#EA6B66,#CC0000);fontStyle=1" vertex="1" parent="1">
          <mxGeometry x="-376" y="-685" width="150" height="270" as="geometry" />
        </mxCell>
        <mxCell id="FVcaYwHXagqDAu146TD7-171" value="" style="shape=tableRow;horizontal=0;startSize=0;swimlaneHead=0;swimlaneBody=0;strokeColor=inherit;top=0;left=0;bottom=0;right=0;collapsible=0;dropTarget=0;fillColor=none;points=[[0,0.5],[1,0.5]];portConstraint=eastwest;" vertex="1" parent="FVcaYwHXagqDAu146TD7-170">
          <mxGeometry y="30" width="150" height="40" as="geometry" />
        </mxCell>
        <mxCell id="FVcaYwHXagqDAu146TD7-172" value="id" style="shape=partialRectangle;html=1;whiteSpace=wrap;connectable=0;strokeColor=inherit;overflow=hidden;fillColor=none;top=0;left=0;bottom=0;right=0;pointerEvents=1;" vertex="1" parent="FVcaYwHXagqDAu146TD7-171">
          <mxGeometry width="150" height="40" as="geometry">
            <mxRectangle width="150" height="40" as="alternateBounds" />
          </mxGeometry>
        </mxCell>
        <mxCell id="FVcaYwHXagqDAu146TD7-191" style="shape=tableRow;horizontal=0;startSize=0;swimlaneHead=0;swimlaneBody=0;strokeColor=inherit;top=0;left=0;bottom=0;right=0;collapsible=0;dropTarget=0;fillColor=none;points=[[0,0.5],[1,0.5]];portConstraint=eastwest;" vertex="1" parent="FVcaYwHXagqDAu146TD7-170">
          <mxGeometry y="70" width="150" height="40" as="geometry" />
        </mxCell>
        <mxCell id="FVcaYwHXagqDAu146TD7-192" value="added_by" style="shape=partialRectangle;html=1;whiteSpace=wrap;connectable=0;strokeColor=inherit;overflow=hidden;fillColor=none;top=0;left=0;bottom=0;right=0;pointerEvents=1;" vertex="1" parent="FVcaYwHXagqDAu146TD7-191">
          <mxGeometry width="150" height="40" as="geometry">
            <mxRectangle width="150" height="40" as="alternateBounds" />
          </mxGeometry>
        </mxCell>
        <mxCell id="FVcaYwHXagqDAu146TD7-173" value="" style="shape=tableRow;horizontal=0;startSize=0;swimlaneHead=0;swimlaneBody=0;strokeColor=inherit;top=0;left=0;bottom=0;right=0;collapsible=0;dropTarget=0;fillColor=none;points=[[0,0.5],[1,0.5]];portConstraint=eastwest;" vertex="1" parent="FVcaYwHXagqDAu146TD7-170">
          <mxGeometry y="110" width="150" height="40" as="geometry" />
        </mxCell>
        <mxCell id="FVcaYwHXagqDAu146TD7-174" value="name" style="shape=partialRectangle;html=1;whiteSpace=wrap;connectable=0;strokeColor=inherit;overflow=hidden;fillColor=none;top=0;left=0;bottom=0;right=0;pointerEvents=1;" vertex="1" parent="FVcaYwHXagqDAu146TD7-173">
          <mxGeometry width="150" height="40" as="geometry">
            <mxRectangle width="150" height="40" as="alternateBounds" />
          </mxGeometry>
        </mxCell>
        <mxCell id="FVcaYwHXagqDAu146TD7-175" value="" style="shape=tableRow;horizontal=0;startSize=0;swimlaneHead=0;swimlaneBody=0;strokeColor=inherit;top=0;left=0;bottom=0;right=0;collapsible=0;dropTarget=0;fillColor=none;points=[[0,0.5],[1,0.5]];portConstraint=eastwest;" vertex="1" parent="FVcaYwHXagqDAu146TD7-170">
          <mxGeometry y="150" width="150" height="40" as="geometry" />
        </mxCell>
        <mxCell id="FVcaYwHXagqDAu146TD7-176" value="start_date" style="shape=partialRectangle;html=1;whiteSpace=wrap;connectable=0;strokeColor=inherit;overflow=hidden;fillColor=none;top=0;left=0;bottom=0;right=0;pointerEvents=1;" vertex="1" parent="FVcaYwHXagqDAu146TD7-175">
          <mxGeometry width="150" height="40" as="geometry">
            <mxRectangle width="150" height="40" as="alternateBounds" />
          </mxGeometry>
        </mxCell>
        <mxCell id="FVcaYwHXagqDAu146TD7-177" value="" style="shape=tableRow;horizontal=0;startSize=0;swimlaneHead=0;swimlaneBody=0;strokeColor=inherit;top=0;left=0;bottom=0;right=0;collapsible=0;dropTarget=0;fillColor=none;points=[[0,0.5],[1,0.5]];portConstraint=eastwest;" vertex="1" parent="FVcaYwHXagqDAu146TD7-170">
          <mxGeometry y="190" width="150" height="40" as="geometry" />
        </mxCell>
        <mxCell id="FVcaYwHXagqDAu146TD7-178" value="end_date" style="shape=partialRectangle;html=1;whiteSpace=wrap;connectable=0;strokeColor=inherit;overflow=hidden;fillColor=none;top=0;left=0;bottom=0;right=0;pointerEvents=1;" vertex="1" parent="FVcaYwHXagqDAu146TD7-177">
          <mxGeometry width="150" height="40" as="geometry">
            <mxRectangle width="150" height="40" as="alternateBounds" />
          </mxGeometry>
        </mxCell>
        <mxCell id="FVcaYwHXagqDAu146TD7-179" style="shape=tableRow;horizontal=0;startSize=0;swimlaneHead=0;swimlaneBody=0;strokeColor=inherit;top=0;left=0;bottom=0;right=0;collapsible=0;dropTarget=0;fillColor=none;points=[[0,0.5],[1,0.5]];portConstraint=eastwest;" vertex="1" parent="FVcaYwHXagqDAu146TD7-170">
          <mxGeometry y="230" width="150" height="40" as="geometry" />
        </mxCell>
        <mxCell id="FVcaYwHXagqDAu146TD7-180" value="action" style="shape=partialRectangle;html=1;whiteSpace=wrap;connectable=0;strokeColor=inherit;overflow=hidden;fillColor=none;top=0;left=0;bottom=0;right=0;pointerEvents=1;" vertex="1" parent="FVcaYwHXagqDAu146TD7-179">
          <mxGeometry width="150" height="40" as="geometry">
            <mxRectangle width="150" height="40" as="alternateBounds" />
          </mxGeometry>
        </mxCell>
        <mxCell id="FVcaYwHXagqDAu146TD7-196" value="Consumer" style="shape=table;startSize=30;container=1;collapsible=0;childLayout=tableLayout;fillColor=light-dark(#FFFFFF,#FFFF00);gradientColor=light-dark(#FFD966,#333300);strokeColor=light-dark(#D6B656,#666600);fontColor=light-dark(#000000,#000000);fontStyle=1" vertex="1" parent="1">
          <mxGeometry x="-1881" y="-1006.5" width="150" height="390" as="geometry" />
        </mxCell>
        <mxCell id="FVcaYwHXagqDAu146TD7-197" value="" style="shape=tableRow;horizontal=0;startSize=0;swimlaneHead=0;swimlaneBody=0;strokeColor=light-dark(#D6B656,#666600);top=0;left=0;bottom=0;right=0;collapsible=0;dropTarget=0;fillColor=none;points=[[0,0.5],[1,0.5]];portConstraint=eastwest;" vertex="1" parent="FVcaYwHXagqDAu146TD7-196">
          <mxGeometry y="30" width="150" height="40" as="geometry" />
        </mxCell>
        <mxCell id="FVcaYwHXagqDAu146TD7-198" value="id" style="shape=partialRectangle;html=1;whiteSpace=wrap;connectable=0;strokeColor=light-dark(#D6B656,#666600);overflow=hidden;fillColor=none;top=0;left=0;bottom=0;right=0;pointerEvents=1;" vertex="1" parent="FVcaYwHXagqDAu146TD7-197">
          <mxGeometry width="150" height="40" as="geometry">
            <mxRectangle width="150" height="40" as="alternateBounds" />
          </mxGeometry>
        </mxCell>
        <mxCell id="FVcaYwHXagqDAu146TD7-199" value="" style="shape=tableRow;horizontal=0;startSize=0;swimlaneHead=0;swimlaneBody=0;strokeColor=light-dark(#D6B656,#666600);top=0;left=0;bottom=0;right=0;collapsible=0;dropTarget=0;fillColor=none;points=[[0,0.5],[1,0.5]];portConstraint=eastwest;" vertex="1" parent="FVcaYwHXagqDAu146TD7-196">
          <mxGeometry y="70" width="150" height="40" as="geometry" />
        </mxCell>
        <mxCell id="FVcaYwHXagqDAu146TD7-200" value="email" style="shape=partialRectangle;html=1;whiteSpace=wrap;connectable=0;strokeColor=light-dark(#D6B656,#666600);overflow=hidden;fillColor=none;top=0;left=0;bottom=0;right=0;pointerEvents=1;" vertex="1" parent="FVcaYwHXagqDAu146TD7-199">
          <mxGeometry width="150" height="40" as="geometry">
            <mxRectangle width="150" height="40" as="alternateBounds" />
          </mxGeometry>
        </mxCell>
        <mxCell id="FVcaYwHXagqDAu146TD7-201" value="" style="shape=tableRow;horizontal=0;startSize=0;swimlaneHead=0;swimlaneBody=0;strokeColor=light-dark(#D6B656,#666600);top=0;left=0;bottom=0;right=0;collapsible=0;dropTarget=0;fillColor=none;points=[[0,0.5],[1,0.5]];portConstraint=eastwest;" vertex="1" parent="FVcaYwHXagqDAu146TD7-196">
          <mxGeometry y="110" width="150" height="40" as="geometry" />
        </mxCell>
        <mxCell id="FVcaYwHXagqDAu146TD7-202" value="name" style="shape=partialRectangle;html=1;whiteSpace=wrap;connectable=0;strokeColor=light-dark(#D6B656,#666600);overflow=hidden;fillColor=none;top=0;left=0;bottom=0;right=0;pointerEvents=1;" vertex="1" parent="FVcaYwHXagqDAu146TD7-201">
          <mxGeometry width="150" height="40" as="geometry">
            <mxRectangle width="150" height="40" as="alternateBounds" />
          </mxGeometry>
        </mxCell>
        <mxCell id="FVcaYwHXagqDAu146TD7-203" value="" style="shape=tableRow;horizontal=0;startSize=0;swimlaneHead=0;swimlaneBody=0;strokeColor=light-dark(#D6B656,#666600);top=0;left=0;bottom=0;right=0;collapsible=0;dropTarget=0;fillColor=none;points=[[0,0.5],[1,0.5]];portConstraint=eastwest;" vertex="1" parent="FVcaYwHXagqDAu146TD7-196">
          <mxGeometry y="150" width="150" height="40" as="geometry" />
        </mxCell>
        <mxCell id="FVcaYwHXagqDAu146TD7-204" value="password" style="shape=partialRectangle;html=1;whiteSpace=wrap;connectable=0;strokeColor=light-dark(#D6B656,#666600);overflow=hidden;fillColor=none;top=0;left=0;bottom=0;right=0;pointerEvents=1;" vertex="1" parent="FVcaYwHXagqDAu146TD7-203">
          <mxGeometry width="150" height="40" as="geometry">
            <mxRectangle width="150" height="40" as="alternateBounds" />
          </mxGeometry>
        </mxCell>
        <mxCell id="FVcaYwHXagqDAu146TD7-209" value="" style="shape=tableRow;horizontal=0;startSize=0;swimlaneHead=0;swimlaneBody=0;strokeColor=light-dark(#D6B656,#666600);top=0;left=0;bottom=0;right=0;collapsible=0;dropTarget=0;fillColor=none;points=[[0,0.5],[1,0.5]];portConstraint=eastwest;" vertex="1" parent="FVcaYwHXagqDAu146TD7-196">
          <mxGeometry y="190" width="150" height="40" as="geometry" />
        </mxCell>
        <mxCell id="FVcaYwHXagqDAu146TD7-210" value="telephone" style="shape=partialRectangle;html=1;whiteSpace=wrap;connectable=0;strokeColor=light-dark(#D6B656,#666600);overflow=hidden;fillColor=none;top=0;left=0;bottom=0;right=0;pointerEvents=1;" vertex="1" parent="FVcaYwHXagqDAu146TD7-209">
          <mxGeometry width="150" height="40" as="geometry">
            <mxRectangle width="150" height="40" as="alternateBounds" />
          </mxGeometry>
        </mxCell>
        <mxCell id="FVcaYwHXagqDAu146TD7-211" value="" style="shape=tableRow;horizontal=0;startSize=0;swimlaneHead=0;swimlaneBody=0;strokeColor=light-dark(#D6B656,#666600);top=0;left=0;bottom=0;right=0;collapsible=0;dropTarget=0;fillColor=none;points=[[0,0.5],[1,0.5]];portConstraint=eastwest;" vertex="1" parent="FVcaYwHXagqDAu146TD7-196">
          <mxGeometry y="230" width="150" height="40" as="geometry" />
        </mxCell>
        <mxCell id="FVcaYwHXagqDAu146TD7-212" value="document_type" style="shape=partialRectangle;html=1;whiteSpace=wrap;connectable=0;strokeColor=light-dark(#D6B656,#666600);overflow=hidden;fillColor=none;top=0;left=0;bottom=0;right=0;pointerEvents=1;" vertex="1" parent="FVcaYwHXagqDAu146TD7-211">
          <mxGeometry width="150" height="40" as="geometry">
            <mxRectangle width="150" height="40" as="alternateBounds" />
          </mxGeometry>
        </mxCell>
        <mxCell id="FVcaYwHXagqDAu146TD7-213" style="shape=tableRow;horizontal=0;startSize=0;swimlaneHead=0;swimlaneBody=0;strokeColor=light-dark(#D6B656,#666600);top=0;left=0;bottom=0;right=0;collapsible=0;dropTarget=0;fillColor=none;points=[[0,0.5],[1,0.5]];portConstraint=eastwest;" vertex="1" parent="FVcaYwHXagqDAu146TD7-196">
          <mxGeometry y="270" width="150" height="40" as="geometry" />
        </mxCell>
        <mxCell id="FVcaYwHXagqDAu146TD7-214" value="document_number" style="shape=partialRectangle;html=1;whiteSpace=wrap;connectable=0;strokeColor=light-dark(#D6B656,#666600);overflow=hidden;fillColor=none;top=0;left=0;bottom=0;right=0;pointerEvents=1;" vertex="1" parent="FVcaYwHXagqDAu146TD7-213">
          <mxGeometry width="150" height="40" as="geometry">
            <mxRectangle width="150" height="40" as="alternateBounds" />
          </mxGeometry>
        </mxCell>
        <mxCell id="FVcaYwHXagqDAu146TD7-221" style="shape=tableRow;horizontal=0;startSize=0;swimlaneHead=0;swimlaneBody=0;strokeColor=light-dark(#D6B656,#666600);top=0;left=0;bottom=0;right=0;collapsible=0;dropTarget=0;fillColor=none;points=[[0,0.5],[1,0.5]];portConstraint=eastwest;" vertex="1" parent="FVcaYwHXagqDAu146TD7-196">
          <mxGeometry y="310" width="150" height="40" as="geometry" />
        </mxCell>
        <mxCell id="FVcaYwHXagqDAu146TD7-222" value="shopping_cart" style="shape=partialRectangle;html=1;whiteSpace=wrap;connectable=0;strokeColor=light-dark(#D6B656,#666600);overflow=hidden;fillColor=none;top=0;left=0;bottom=0;right=0;pointerEvents=1;" vertex="1" parent="FVcaYwHXagqDAu146TD7-221">
          <mxGeometry width="150" height="40" as="geometry">
            <mxRectangle width="150" height="40" as="alternateBounds" />
          </mxGeometry>
        </mxCell>
        <mxCell id="FVcaYwHXagqDAu146TD7-223" style="shape=tableRow;horizontal=0;startSize=0;swimlaneHead=0;swimlaneBody=0;strokeColor=light-dark(#D6B656,#666600);top=0;left=0;bottom=0;right=0;collapsible=0;dropTarget=0;fillColor=none;points=[[0,0.5],[1,0.5]];portConstraint=eastwest;" vertex="1" parent="FVcaYwHXagqDAu146TD7-196">
          <mxGeometry y="350" width="150" height="40" as="geometry" />
        </mxCell>
        <mxCell id="FVcaYwHXagqDAu146TD7-224" value="brought" style="shape=partialRectangle;html=1;whiteSpace=wrap;connectable=0;strokeColor=light-dark(#D6B656,#666600);overflow=hidden;fillColor=none;top=0;left=0;bottom=0;right=0;pointerEvents=1;" vertex="1" parent="FVcaYwHXagqDAu146TD7-223">
          <mxGeometry width="150" height="40" as="geometry">
            <mxRectangle width="150" height="40" as="alternateBounds" />
          </mxGeometry>
        </mxCell>
        <mxCell id="FVcaYwHXagqDAu146TD7-227" value="product_viewed" style="shape=table;startSize=30;container=1;collapsible=0;childLayout=tableLayout;fillColor=light-dark(#FFCD28,#CCCC00);strokeColor=light-dark(#D79B00,#E6D0DE);gradientColor=light-dark(#FFA500,#006600);fontStyle=1" vertex="1" parent="1">
          <mxGeometry x="-1229" y="-762.5" width="150" height="230" as="geometry" />
        </mxCell>
        <mxCell id="FVcaYwHXagqDAu146TD7-228" value="" style="shape=tableRow;horizontal=0;startSize=0;swimlaneHead=0;swimlaneBody=0;strokeColor=inherit;top=0;left=0;bottom=0;right=0;collapsible=0;dropTarget=0;fillColor=none;points=[[0,0.5],[1,0.5]];portConstraint=eastwest;" vertex="1" parent="FVcaYwHXagqDAu146TD7-227">
          <mxGeometry y="30" width="150" height="40" as="geometry" />
        </mxCell>
        <mxCell id="FVcaYwHXagqDAu146TD7-229" value="breadcrum_id" style="shape=partialRectangle;html=1;whiteSpace=wrap;connectable=0;strokeColor=inherit;overflow=hidden;fillColor=none;top=0;left=0;bottom=0;right=0;pointerEvents=1;" vertex="1" parent="FVcaYwHXagqDAu146TD7-228">
          <mxGeometry width="150" height="40" as="geometry">
            <mxRectangle width="150" height="40" as="alternateBounds" />
          </mxGeometry>
        </mxCell>
        <mxCell id="FVcaYwHXagqDAu146TD7-230" value="" style="shape=tableRow;horizontal=0;startSize=0;swimlaneHead=0;swimlaneBody=0;strokeColor=inherit;top=0;left=0;bottom=0;right=0;collapsible=0;dropTarget=0;fillColor=none;points=[[0,0.5],[1,0.5]];portConstraint=eastwest;" vertex="1" parent="FVcaYwHXagqDAu146TD7-227">
          <mxGeometry y="70" width="150" height="40" as="geometry" />
        </mxCell>
        <mxCell id="FVcaYwHXagqDAu146TD7-231" value="product_id" style="shape=partialRectangle;html=1;whiteSpace=wrap;connectable=0;strokeColor=inherit;overflow=hidden;fillColor=none;top=0;left=0;bottom=0;right=0;pointerEvents=1;" vertex="1" parent="FVcaYwHXagqDAu146TD7-230">
          <mxGeometry width="150" height="40" as="geometry">
            <mxRectangle width="150" height="40" as="alternateBounds" />
          </mxGeometry>
        </mxCell>
        <mxCell id="FVcaYwHXagqDAu146TD7-232" value="" style="shape=tableRow;horizontal=0;startSize=0;swimlaneHead=0;swimlaneBody=0;strokeColor=inherit;top=0;left=0;bottom=0;right=0;collapsible=0;dropTarget=0;fillColor=none;points=[[0,0.5],[1,0.5]];portConstraint=eastwest;" vertex="1" parent="FVcaYwHXagqDAu146TD7-227">
          <mxGeometry y="110" width="150" height="40" as="geometry" />
        </mxCell>
        <mxCell id="FVcaYwHXagqDAu146TD7-233" value="visit_date" style="shape=partialRectangle;html=1;whiteSpace=wrap;connectable=0;strokeColor=inherit;overflow=hidden;fillColor=none;top=0;left=0;bottom=0;right=0;pointerEvents=1;" vertex="1" parent="FVcaYwHXagqDAu146TD7-232">
          <mxGeometry width="150" height="40" as="geometry">
            <mxRectangle width="150" height="40" as="alternateBounds" />
          </mxGeometry>
        </mxCell>
        <mxCell id="FVcaYwHXagqDAu146TD7-234" value="" style="shape=tableRow;horizontal=0;startSize=0;swimlaneHead=0;swimlaneBody=0;strokeColor=inherit;top=0;left=0;bottom=0;right=0;collapsible=0;dropTarget=0;fillColor=none;points=[[0,0.5],[1,0.5]];portConstraint=eastwest;" vertex="1" parent="FVcaYwHXagqDAu146TD7-227">
          <mxGeometry y="150" width="150" height="40" as="geometry" />
        </mxCell>
        <mxCell id="FVcaYwHXagqDAu146TD7-235" value="time_spent" style="shape=partialRectangle;html=1;whiteSpace=wrap;connectable=0;strokeColor=inherit;overflow=hidden;fillColor=none;top=0;left=0;bottom=0;right=0;pointerEvents=1;" vertex="1" parent="FVcaYwHXagqDAu146TD7-234">
          <mxGeometry width="150" height="40" as="geometry">
            <mxRectangle width="150" height="40" as="alternateBounds" />
          </mxGeometry>
        </mxCell>
        <mxCell id="FVcaYwHXagqDAu146TD7-236" value="" style="shape=tableRow;horizontal=0;startSize=0;swimlaneHead=0;swimlaneBody=0;strokeColor=inherit;top=0;left=0;bottom=0;right=0;collapsible=0;dropTarget=0;fillColor=none;points=[[0,0.5],[1,0.5]];portConstraint=eastwest;" vertex="1" parent="FVcaYwHXagqDAu146TD7-227">
          <mxGeometry y="190" width="150" height="40" as="geometry" />
        </mxCell>
        <mxCell id="FVcaYwHXagqDAu146TD7-237" value="added_to_shopping_cart" style="shape=partialRectangle;html=1;whiteSpace=wrap;connectable=0;strokeColor=inherit;overflow=hidden;fillColor=none;top=0;left=0;bottom=0;right=0;pointerEvents=1;" vertex="1" parent="FVcaYwHXagqDAu146TD7-236">
          <mxGeometry width="150" height="40" as="geometry">
            <mxRectangle width="150" height="40" as="alternateBounds" />
          </mxGeometry>
        </mxCell>
        <mxCell id="FVcaYwHXagqDAu146TD7-252" value="Shopping_cart" style="shape=table;startSize=30;container=1;collapsible=0;childLayout=tableLayout;fillColor=light-dark(#D5E8D4,#FFFF00);strokeColor=#82b366;gradientColor=light-dark(#97D077,#00FF00);fontColor=light-dark(#000000,#000000);fontStyle=1" vertex="1" parent="1">
          <mxGeometry x="-1549" y="-1076.5" width="150" height="270" as="geometry" />
        </mxCell>
        <mxCell id="FVcaYwHXagqDAu146TD7-253" value="" style="shape=tableRow;horizontal=0;startSize=0;swimlaneHead=0;swimlaneBody=0;strokeColor=inherit;top=0;left=0;bottom=0;right=0;collapsible=0;dropTarget=0;fillColor=none;points=[[0,0.5],[1,0.5]];portConstraint=eastwest;" vertex="1" parent="FVcaYwHXagqDAu146TD7-252">
          <mxGeometry y="30" width="150" height="40" as="geometry" />
        </mxCell>
        <mxCell id="FVcaYwHXagqDAu146TD7-254" value="id" style="shape=partialRectangle;html=1;whiteSpace=wrap;connectable=0;strokeColor=inherit;overflow=hidden;fillColor=none;top=0;left=0;bottom=0;right=0;pointerEvents=1;" vertex="1" parent="FVcaYwHXagqDAu146TD7-253">
          <mxGeometry width="150" height="40" as="geometry">
            <mxRectangle width="150" height="40" as="alternateBounds" />
          </mxGeometry>
        </mxCell>
        <mxCell id="FVcaYwHXagqDAu146TD7-299" style="shape=tableRow;horizontal=0;startSize=0;swimlaneHead=0;swimlaneBody=0;strokeColor=inherit;top=0;left=0;bottom=0;right=0;collapsible=0;dropTarget=0;fillColor=none;points=[[0,0.5],[1,0.5]];portConstraint=eastwest;" vertex="1" parent="FVcaYwHXagqDAu146TD7-252">
          <mxGeometry y="70" width="150" height="40" as="geometry" />
        </mxCell>
        <mxCell id="FVcaYwHXagqDAu146TD7-300" value="consumer_id" style="shape=partialRectangle;html=1;whiteSpace=wrap;connectable=0;strokeColor=inherit;overflow=hidden;fillColor=none;top=0;left=0;bottom=0;right=0;pointerEvents=1;" vertex="1" parent="FVcaYwHXagqDAu146TD7-299">
          <mxGeometry width="150" height="40" as="geometry">
            <mxRectangle width="150" height="40" as="alternateBounds" />
          </mxGeometry>
        </mxCell>
        <mxCell id="FVcaYwHXagqDAu146TD7-255" value="" style="shape=tableRow;horizontal=0;startSize=0;swimlaneHead=0;swimlaneBody=0;strokeColor=inherit;top=0;left=0;bottom=0;right=0;collapsible=0;dropTarget=0;fillColor=none;points=[[0,0.5],[1,0.5]];portConstraint=eastwest;" vertex="1" parent="FVcaYwHXagqDAu146TD7-252">
          <mxGeometry y="110" width="150" height="40" as="geometry" />
        </mxCell>
        <mxCell id="FVcaYwHXagqDAu146TD7-256" value="products_ids" style="shape=partialRectangle;html=1;whiteSpace=wrap;connectable=0;strokeColor=inherit;overflow=hidden;fillColor=none;top=0;left=0;bottom=0;right=0;pointerEvents=1;" vertex="1" parent="FVcaYwHXagqDAu146TD7-255">
          <mxGeometry width="150" height="40" as="geometry">
            <mxRectangle width="150" height="40" as="alternateBounds" />
          </mxGeometry>
        </mxCell>
        <mxCell id="FVcaYwHXagqDAu146TD7-257" value="" style="shape=tableRow;horizontal=0;startSize=0;swimlaneHead=0;swimlaneBody=0;strokeColor=inherit;top=0;left=0;bottom=0;right=0;collapsible=0;dropTarget=0;fillColor=none;points=[[0,0.5],[1,0.5]];portConstraint=eastwest;" vertex="1" parent="FVcaYwHXagqDAu146TD7-252">
          <mxGeometry y="150" width="150" height="40" as="geometry" />
        </mxCell>
        <mxCell id="FVcaYwHXagqDAu146TD7-258" value="creation_date" style="shape=partialRectangle;html=1;whiteSpace=wrap;connectable=0;strokeColor=inherit;overflow=hidden;fillColor=none;top=0;left=0;bottom=0;right=0;pointerEvents=1;" vertex="1" parent="FVcaYwHXagqDAu146TD7-257">
          <mxGeometry width="150" height="40" as="geometry">
            <mxRectangle width="150" height="40" as="alternateBounds" />
          </mxGeometry>
        </mxCell>
        <mxCell id="FVcaYwHXagqDAu146TD7-259" value="" style="shape=tableRow;horizontal=0;startSize=0;swimlaneHead=0;swimlaneBody=0;strokeColor=inherit;top=0;left=0;bottom=0;right=0;collapsible=0;dropTarget=0;fillColor=none;points=[[0,0.5],[1,0.5]];portConstraint=eastwest;" vertex="1" parent="FVcaYwHXagqDAu146TD7-252">
          <mxGeometry y="190" width="150" height="40" as="geometry" />
        </mxCell>
        <mxCell id="FVcaYwHXagqDAu146TD7-260" value="exclusion_date" style="shape=partialRectangle;html=1;whiteSpace=wrap;connectable=0;strokeColor=inherit;overflow=hidden;fillColor=none;top=0;left=0;bottom=0;right=0;pointerEvents=1;" vertex="1" parent="FVcaYwHXagqDAu146TD7-259">
          <mxGeometry width="150" height="40" as="geometry">
            <mxRectangle width="150" height="40" as="alternateBounds" />
          </mxGeometry>
        </mxCell>
        <mxCell id="FVcaYwHXagqDAu146TD7-261" value="" style="shape=tableRow;horizontal=0;startSize=0;swimlaneHead=0;swimlaneBody=0;strokeColor=inherit;top=0;left=0;bottom=0;right=0;collapsible=0;dropTarget=0;fillColor=none;points=[[0,0.5],[1,0.5]];portConstraint=eastwest;" vertex="1" parent="FVcaYwHXagqDAu146TD7-252">
          <mxGeometry y="230" width="150" height="40" as="geometry" />
        </mxCell>
        <mxCell id="FVcaYwHXagqDAu146TD7-262" value="purchased" style="shape=partialRectangle;html=1;whiteSpace=wrap;connectable=0;strokeColor=inherit;overflow=hidden;fillColor=none;top=0;left=0;bottom=0;right=0;pointerEvents=1;" vertex="1" parent="FVcaYwHXagqDAu146TD7-261">
          <mxGeometry width="150" height="40" as="geometry">
            <mxRectangle width="150" height="40" as="alternateBounds" />
          </mxGeometry>
        </mxCell>
        <mxCell id="FVcaYwHXagqDAu146TD7-273" value="Product_comments" style="shape=table;startSize=30;container=1;collapsible=0;childLayout=tableLayout;fillColor=light-dark(#FFCD28,#FFFF33);strokeColor=#d79b00;gradientColor=light-dark(#FFA500,#CC6600);fontColor=light-dark(#000000,#000000);fontStyle=1" vertex="1" parent="1">
          <mxGeometry x="-1549" y="-1469.5" width="150" height="350" as="geometry" />
        </mxCell>
        <mxCell id="FVcaYwHXagqDAu146TD7-274" value="" style="shape=tableRow;horizontal=0;startSize=0;swimlaneHead=0;swimlaneBody=0;strokeColor=inherit;top=0;left=0;bottom=0;right=0;collapsible=0;dropTarget=0;fillColor=none;points=[[0,0.5],[1,0.5]];portConstraint=eastwest;" vertex="1" parent="FVcaYwHXagqDAu146TD7-273">
          <mxGeometry y="30" width="150" height="40" as="geometry" />
        </mxCell>
        <mxCell id="FVcaYwHXagqDAu146TD7-275" value="id" style="shape=partialRectangle;html=1;whiteSpace=wrap;connectable=0;strokeColor=inherit;overflow=hidden;fillColor=none;top=0;left=0;bottom=0;right=0;pointerEvents=1;" vertex="1" parent="FVcaYwHXagqDAu146TD7-274">
          <mxGeometry width="150" height="40" as="geometry">
            <mxRectangle width="150" height="40" as="alternateBounds" />
          </mxGeometry>
        </mxCell>
        <mxCell id="FVcaYwHXagqDAu146TD7-296" style="shape=tableRow;horizontal=0;startSize=0;swimlaneHead=0;swimlaneBody=0;strokeColor=inherit;top=0;left=0;bottom=0;right=0;collapsible=0;dropTarget=0;fillColor=none;points=[[0,0.5],[1,0.5]];portConstraint=eastwest;" vertex="1" parent="FVcaYwHXagqDAu146TD7-273">
          <mxGeometry y="70" width="150" height="40" as="geometry" />
        </mxCell>
        <mxCell id="FVcaYwHXagqDAu146TD7-297" value="consumer_id" style="shape=partialRectangle;html=1;whiteSpace=wrap;connectable=0;strokeColor=inherit;overflow=hidden;fillColor=none;top=0;left=0;bottom=0;right=0;pointerEvents=1;" vertex="1" parent="FVcaYwHXagqDAu146TD7-296">
          <mxGeometry width="150" height="40" as="geometry">
            <mxRectangle width="150" height="40" as="alternateBounds" />
          </mxGeometry>
        </mxCell>
        <mxCell id="FVcaYwHXagqDAu146TD7-294" style="shape=tableRow;horizontal=0;startSize=0;swimlaneHead=0;swimlaneBody=0;strokeColor=inherit;top=0;left=0;bottom=0;right=0;collapsible=0;dropTarget=0;fillColor=none;points=[[0,0.5],[1,0.5]];portConstraint=eastwest;" vertex="1" parent="FVcaYwHXagqDAu146TD7-273">
          <mxGeometry y="110" width="150" height="40" as="geometry" />
        </mxCell>
        <mxCell id="FVcaYwHXagqDAu146TD7-295" value="product_id" style="shape=partialRectangle;html=1;whiteSpace=wrap;connectable=0;strokeColor=inherit;overflow=hidden;fillColor=none;top=0;left=0;bottom=0;right=0;pointerEvents=1;" vertex="1" parent="FVcaYwHXagqDAu146TD7-294">
          <mxGeometry width="150" height="40" as="geometry">
            <mxRectangle width="150" height="40" as="alternateBounds" />
          </mxGeometry>
        </mxCell>
        <mxCell id="FVcaYwHXagqDAu146TD7-276" value="" style="shape=tableRow;horizontal=0;startSize=0;swimlaneHead=0;swimlaneBody=0;strokeColor=inherit;top=0;left=0;bottom=0;right=0;collapsible=0;dropTarget=0;fillColor=none;points=[[0,0.5],[1,0.5]];portConstraint=eastwest;" vertex="1" parent="FVcaYwHXagqDAu146TD7-273">
          <mxGeometry y="150" width="150" height="40" as="geometry" />
        </mxCell>
        <mxCell id="FVcaYwHXagqDAu146TD7-277" value="title" style="shape=partialRectangle;html=1;whiteSpace=wrap;connectable=0;strokeColor=inherit;overflow=hidden;fillColor=none;top=0;left=0;bottom=0;right=0;pointerEvents=1;" vertex="1" parent="FVcaYwHXagqDAu146TD7-276">
          <mxGeometry width="150" height="40" as="geometry">
            <mxRectangle width="150" height="40" as="alternateBounds" />
          </mxGeometry>
        </mxCell>
        <mxCell id="FVcaYwHXagqDAu146TD7-278" value="" style="shape=tableRow;horizontal=0;startSize=0;swimlaneHead=0;swimlaneBody=0;strokeColor=inherit;top=0;left=0;bottom=0;right=0;collapsible=0;dropTarget=0;fillColor=none;points=[[0,0.5],[1,0.5]];portConstraint=eastwest;" vertex="1" parent="FVcaYwHXagqDAu146TD7-273">
          <mxGeometry y="190" width="150" height="40" as="geometry" />
        </mxCell>
        <mxCell id="FVcaYwHXagqDAu146TD7-279" value="text" style="shape=partialRectangle;html=1;whiteSpace=wrap;connectable=0;strokeColor=inherit;overflow=hidden;fillColor=none;top=0;left=0;bottom=0;right=0;pointerEvents=1;" vertex="1" parent="FVcaYwHXagqDAu146TD7-278">
          <mxGeometry width="150" height="40" as="geometry">
            <mxRectangle width="150" height="40" as="alternateBounds" />
          </mxGeometry>
        </mxCell>
        <mxCell id="FVcaYwHXagqDAu146TD7-280" value="" style="shape=tableRow;horizontal=0;startSize=0;swimlaneHead=0;swimlaneBody=0;strokeColor=inherit;top=0;left=0;bottom=0;right=0;collapsible=0;dropTarget=0;fillColor=none;points=[[0,0.5],[1,0.5]];portConstraint=eastwest;" vertex="1" parent="FVcaYwHXagqDAu146TD7-273">
          <mxGeometry y="230" width="150" height="40" as="geometry" />
        </mxCell>
        <mxCell id="FVcaYwHXagqDAu146TD7-281" value="score" style="shape=partialRectangle;html=1;whiteSpace=wrap;connectable=0;strokeColor=inherit;overflow=hidden;fillColor=none;top=0;left=0;bottom=0;right=0;pointerEvents=1;" vertex="1" parent="FVcaYwHXagqDAu146TD7-280">
          <mxGeometry width="150" height="40" as="geometry">
            <mxRectangle width="150" height="40" as="alternateBounds" />
          </mxGeometry>
        </mxCell>
        <mxCell id="FVcaYwHXagqDAu146TD7-304" style="shape=tableRow;horizontal=0;startSize=0;swimlaneHead=0;swimlaneBody=0;strokeColor=inherit;top=0;left=0;bottom=0;right=0;collapsible=0;dropTarget=0;fillColor=none;points=[[0,0.5],[1,0.5]];portConstraint=eastwest;" vertex="1" parent="FVcaYwHXagqDAu146TD7-273">
          <mxGeometry y="270" width="150" height="40" as="geometry" />
        </mxCell>
        <mxCell id="FVcaYwHXagqDAu146TD7-305" value="creation_date" style="shape=partialRectangle;html=1;whiteSpace=wrap;connectable=0;strokeColor=inherit;overflow=hidden;fillColor=none;top=0;left=0;bottom=0;right=0;pointerEvents=1;" vertex="1" parent="FVcaYwHXagqDAu146TD7-304">
          <mxGeometry width="150" height="40" as="geometry">
            <mxRectangle width="150" height="40" as="alternateBounds" />
          </mxGeometry>
        </mxCell>
        <mxCell id="FVcaYwHXagqDAu146TD7-282" value="" style="shape=tableRow;horizontal=0;startSize=0;swimlaneHead=0;swimlaneBody=0;strokeColor=inherit;top=0;left=0;bottom=0;right=0;collapsible=0;dropTarget=0;fillColor=none;points=[[0,0.5],[1,0.5]];portConstraint=eastwest;" vertex="1" parent="FVcaYwHXagqDAu146TD7-273">
          <mxGeometry y="310" width="150" height="40" as="geometry" />
        </mxCell>
        <mxCell id="FVcaYwHXagqDAu146TD7-283" value="has_brought" style="shape=partialRectangle;html=1;whiteSpace=wrap;connectable=0;strokeColor=inherit;overflow=hidden;fillColor=none;top=0;left=0;bottom=0;right=0;pointerEvents=1;" vertex="1" parent="FVcaYwHXagqDAu146TD7-282">
          <mxGeometry width="150" height="40" as="geometry">
            <mxRectangle width="150" height="40" as="alternateBounds" />
          </mxGeometry>
        </mxCell>
        <mxCell id="FVcaYwHXagqDAu146TD7-298" style="edgeStyle=none;curved=1;rounded=0;orthogonalLoop=1;jettySize=auto;html=1;exitX=1;exitY=0.5;exitDx=0;exitDy=0;entryX=0;entryY=0.5;entryDx=0;entryDy=0;fontSize=12;startSize=8;endSize=8;strokeColor=light-dark(#000000,#FFFF00);" edge="1" parent="1" source="FVcaYwHXagqDAu146TD7-197" target="FVcaYwHXagqDAu146TD7-296">
          <mxGeometry relative="1" as="geometry">
            <Array as="points">
              <mxPoint x="-1669" y="-962.5" />
              <mxPoint x="-1598" y="-1230.5" />
              <mxPoint x="-1605" y="-1379.5" />
            </Array>
          </mxGeometry>
        </mxCell>
        <mxCell id="FVcaYwHXagqDAu146TD7-301" style="edgeStyle=none;curved=1;rounded=0;orthogonalLoop=1;jettySize=auto;html=1;exitX=1;exitY=0.5;exitDx=0;exitDy=0;entryX=0;entryY=0.5;entryDx=0;entryDy=0;fontSize=12;startSize=8;endSize=8;strokeColor=light-dark(#000000,#FFFF00);" edge="1" parent="1" source="FVcaYwHXagqDAu146TD7-197" target="FVcaYwHXagqDAu146TD7-299">
          <mxGeometry relative="1" as="geometry" />
        </mxCell>
        <mxCell id="FVcaYwHXagqDAu146TD7-307" value="Wishlist" style="shape=table;startSize=30;container=1;collapsible=0;childLayout=tableLayout;fillColor=light-dark(#F5F5F5,#FFFF00);strokeColor=#666666;gradientColor=light-dark(#B3B3B3,#FFFFFF);fontStyle=1;fontColor=light-dark(#000000,#000000);" vertex="1" parent="1">
          <mxGeometry x="-1549" y="-429.5" width="150" height="230" as="geometry" />
        </mxCell>
        <mxCell id="FVcaYwHXagqDAu146TD7-308" value="" style="shape=tableRow;horizontal=0;startSize=0;swimlaneHead=0;swimlaneBody=0;strokeColor=inherit;top=0;left=0;bottom=0;right=0;collapsible=0;dropTarget=0;fillColor=none;points=[[0,0.5],[1,0.5]];portConstraint=eastwest;" vertex="1" parent="FVcaYwHXagqDAu146TD7-307">
          <mxGeometry y="30" width="150" height="40" as="geometry" />
        </mxCell>
        <mxCell id="FVcaYwHXagqDAu146TD7-309" value="id" style="shape=partialRectangle;html=1;whiteSpace=wrap;connectable=0;strokeColor=inherit;overflow=hidden;fillColor=none;top=0;left=0;bottom=0;right=0;pointerEvents=1;" vertex="1" parent="FVcaYwHXagqDAu146TD7-308">
          <mxGeometry width="150" height="40" as="geometry">
            <mxRectangle width="150" height="40" as="alternateBounds" />
          </mxGeometry>
        </mxCell>
        <mxCell id="FVcaYwHXagqDAu146TD7-310" style="shape=tableRow;horizontal=0;startSize=0;swimlaneHead=0;swimlaneBody=0;strokeColor=inherit;top=0;left=0;bottom=0;right=0;collapsible=0;dropTarget=0;fillColor=none;points=[[0,0.5],[1,0.5]];portConstraint=eastwest;" vertex="1" parent="FVcaYwHXagqDAu146TD7-307">
          <mxGeometry y="70" width="150" height="40" as="geometry" />
        </mxCell>
        <mxCell id="FVcaYwHXagqDAu146TD7-311" value="consumer_id" style="shape=partialRectangle;html=1;whiteSpace=wrap;connectable=0;strokeColor=inherit;overflow=hidden;fillColor=none;top=0;left=0;bottom=0;right=0;pointerEvents=1;" vertex="1" parent="FVcaYwHXagqDAu146TD7-310">
          <mxGeometry width="150" height="40" as="geometry">
            <mxRectangle width="150" height="40" as="alternateBounds" />
          </mxGeometry>
        </mxCell>
        <mxCell id="FVcaYwHXagqDAu146TD7-312" value="" style="shape=tableRow;horizontal=0;startSize=0;swimlaneHead=0;swimlaneBody=0;strokeColor=inherit;top=0;left=0;bottom=0;right=0;collapsible=0;dropTarget=0;fillColor=none;points=[[0,0.5],[1,0.5]];portConstraint=eastwest;" vertex="1" parent="FVcaYwHXagqDAu146TD7-307">
          <mxGeometry y="110" width="150" height="40" as="geometry" />
        </mxCell>
        <mxCell id="FVcaYwHXagqDAu146TD7-313" value="product_id" style="shape=partialRectangle;html=1;whiteSpace=wrap;connectable=0;strokeColor=inherit;overflow=hidden;fillColor=none;top=0;left=0;bottom=0;right=0;pointerEvents=1;" vertex="1" parent="FVcaYwHXagqDAu146TD7-312">
          <mxGeometry width="150" height="40" as="geometry">
            <mxRectangle width="150" height="40" as="alternateBounds" />
          </mxGeometry>
        </mxCell>
        <mxCell id="FVcaYwHXagqDAu146TD7-314" value="" style="shape=tableRow;horizontal=0;startSize=0;swimlaneHead=0;swimlaneBody=0;strokeColor=inherit;top=0;left=0;bottom=0;right=0;collapsible=0;dropTarget=0;fillColor=none;points=[[0,0.5],[1,0.5]];portConstraint=eastwest;" vertex="1" parent="FVcaYwHXagqDAu146TD7-307">
          <mxGeometry y="150" width="150" height="40" as="geometry" />
        </mxCell>
        <mxCell id="FVcaYwHXagqDAu146TD7-315" value="creation_date" style="shape=partialRectangle;html=1;whiteSpace=wrap;connectable=0;strokeColor=inherit;overflow=hidden;fillColor=none;top=0;left=0;bottom=0;right=0;pointerEvents=1;" vertex="1" parent="FVcaYwHXagqDAu146TD7-314">
          <mxGeometry width="150" height="40" as="geometry">
            <mxRectangle width="150" height="40" as="alternateBounds" />
          </mxGeometry>
        </mxCell>
        <mxCell id="FVcaYwHXagqDAu146TD7-316" value="" style="shape=tableRow;horizontal=0;startSize=0;swimlaneHead=0;swimlaneBody=0;strokeColor=inherit;top=0;left=0;bottom=0;right=0;collapsible=0;dropTarget=0;fillColor=none;points=[[0,0.5],[1,0.5]];portConstraint=eastwest;" vertex="1" parent="FVcaYwHXagqDAu146TD7-307">
          <mxGeometry y="190" width="150" height="40" as="geometry" />
        </mxCell>
        <mxCell id="FVcaYwHXagqDAu146TD7-317" value="exclusion_date" style="shape=partialRectangle;html=1;whiteSpace=wrap;connectable=0;strokeColor=inherit;overflow=hidden;fillColor=none;top=0;left=0;bottom=0;right=0;pointerEvents=1;" vertex="1" parent="FVcaYwHXagqDAu146TD7-316">
          <mxGeometry width="150" height="40" as="geometry">
            <mxRectangle width="150" height="40" as="alternateBounds" />
          </mxGeometry>
        </mxCell>
        <mxCell id="FVcaYwHXagqDAu146TD7-321" style="edgeStyle=none;curved=1;rounded=0;orthogonalLoop=1;jettySize=auto;html=1;exitX=1;exitY=0.5;exitDx=0;exitDy=0;entryX=0;entryY=0.5;entryDx=0;entryDy=0;fontSize=12;startSize=8;endSize=8;strokeColor=light-dark(#000000,#FFFF00);" edge="1" parent="1" source="FVcaYwHXagqDAu146TD7-197" target="FVcaYwHXagqDAu146TD7-310">
          <mxGeometry relative="1" as="geometry">
            <Array as="points">
              <mxPoint x="-1636" y="-682.5" />
              <mxPoint x="-1643" y="-343.5" />
            </Array>
          </mxGeometry>
        </mxCell>
        <mxCell id="FVcaYwHXagqDAu146TD7-322" value="Sales" style="shape=table;startSize=30;container=1;collapsible=0;childLayout=tableLayout;fillColor=light-dark(#D5E8D4,#999900);strokeColor=#82b366;gradientColor=#97d077;fontStyle=1" vertex="1" parent="1">
          <mxGeometry x="-1549" y="-154.5" width="150" height="350" as="geometry" />
        </mxCell>
        <mxCell id="FVcaYwHXagqDAu146TD7-323" value="" style="shape=tableRow;horizontal=0;startSize=0;swimlaneHead=0;swimlaneBody=0;strokeColor=inherit;top=0;left=0;bottom=0;right=0;collapsible=0;dropTarget=0;fillColor=none;points=[[0,0.5],[1,0.5]];portConstraint=eastwest;" vertex="1" parent="FVcaYwHXagqDAu146TD7-322">
          <mxGeometry y="30" width="150" height="40" as="geometry" />
        </mxCell>
        <mxCell id="FVcaYwHXagqDAu146TD7-324" value="id" style="shape=partialRectangle;html=1;whiteSpace=wrap;connectable=0;strokeColor=inherit;overflow=hidden;fillColor=none;top=0;left=0;bottom=0;right=0;pointerEvents=1;" vertex="1" parent="FVcaYwHXagqDAu146TD7-323">
          <mxGeometry width="150" height="40" as="geometry">
            <mxRectangle width="150" height="40" as="alternateBounds" />
          </mxGeometry>
        </mxCell>
        <mxCell id="FVcaYwHXagqDAu146TD7-325" style="shape=tableRow;horizontal=0;startSize=0;swimlaneHead=0;swimlaneBody=0;strokeColor=inherit;top=0;left=0;bottom=0;right=0;collapsible=0;dropTarget=0;fillColor=none;points=[[0,0.5],[1,0.5]];portConstraint=eastwest;" vertex="1" parent="FVcaYwHXagqDAu146TD7-322">
          <mxGeometry y="70" width="150" height="40" as="geometry" />
        </mxCell>
        <mxCell id="FVcaYwHXagqDAu146TD7-326" value="consumer_id" style="shape=partialRectangle;html=1;whiteSpace=wrap;connectable=0;strokeColor=inherit;overflow=hidden;fillColor=none;top=0;left=0;bottom=0;right=0;pointerEvents=1;" vertex="1" parent="FVcaYwHXagqDAu146TD7-325">
          <mxGeometry width="150" height="40" as="geometry">
            <mxRectangle width="150" height="40" as="alternateBounds" />
          </mxGeometry>
        </mxCell>
        <mxCell id="FVcaYwHXagqDAu146TD7-327" value="" style="shape=tableRow;horizontal=0;startSize=0;swimlaneHead=0;swimlaneBody=0;strokeColor=inherit;top=0;left=0;bottom=0;right=0;collapsible=0;dropTarget=0;fillColor=none;points=[[0,0.5],[1,0.5]];portConstraint=eastwest;" vertex="1" parent="FVcaYwHXagqDAu146TD7-322">
          <mxGeometry y="110" width="150" height="40" as="geometry" />
        </mxCell>
        <mxCell id="FVcaYwHXagqDAu146TD7-328" value="product_id" style="shape=partialRectangle;html=1;whiteSpace=wrap;connectable=0;strokeColor=inherit;overflow=hidden;fillColor=none;top=0;left=0;bottom=0;right=0;pointerEvents=1;" vertex="1" parent="FVcaYwHXagqDAu146TD7-327">
          <mxGeometry width="150" height="40" as="geometry">
            <mxRectangle width="150" height="40" as="alternateBounds" />
          </mxGeometry>
        </mxCell>
        <mxCell id="FVcaYwHXagqDAu146TD7-333" style="shape=tableRow;horizontal=0;startSize=0;swimlaneHead=0;swimlaneBody=0;strokeColor=inherit;top=0;left=0;bottom=0;right=0;collapsible=0;dropTarget=0;fillColor=none;points=[[0,0.5],[1,0.5]];portConstraint=eastwest;" vertex="1" parent="FVcaYwHXagqDAu146TD7-322">
          <mxGeometry y="150" width="150" height="40" as="geometry" />
        </mxCell>
        <mxCell id="FVcaYwHXagqDAu146TD7-334" value="price" style="shape=partialRectangle;html=1;whiteSpace=wrap;connectable=0;strokeColor=inherit;overflow=hidden;fillColor=none;top=0;left=0;bottom=0;right=0;pointerEvents=1;" vertex="1" parent="FVcaYwHXagqDAu146TD7-333">
          <mxGeometry width="150" height="40" as="geometry">
            <mxRectangle width="150" height="40" as="alternateBounds" />
          </mxGeometry>
        </mxCell>
        <mxCell id="FVcaYwHXagqDAu146TD7-329" value="" style="shape=tableRow;horizontal=0;startSize=0;swimlaneHead=0;swimlaneBody=0;strokeColor=inherit;top=0;left=0;bottom=0;right=0;collapsible=0;dropTarget=0;fillColor=none;points=[[0,0.5],[1,0.5]];portConstraint=eastwest;" vertex="1" parent="FVcaYwHXagqDAu146TD7-322">
          <mxGeometry y="190" width="150" height="40" as="geometry" />
        </mxCell>
        <mxCell id="FVcaYwHXagqDAu146TD7-330" value="sale_date" style="shape=partialRectangle;html=1;whiteSpace=wrap;connectable=0;strokeColor=inherit;overflow=hidden;fillColor=none;top=0;left=0;bottom=0;right=0;pointerEvents=1;" vertex="1" parent="FVcaYwHXagqDAu146TD7-329">
          <mxGeometry width="150" height="40" as="geometry">
            <mxRectangle width="150" height="40" as="alternateBounds" />
          </mxGeometry>
        </mxCell>
        <mxCell id="FVcaYwHXagqDAu146TD7-336" style="shape=tableRow;horizontal=0;startSize=0;swimlaneHead=0;swimlaneBody=0;strokeColor=inherit;top=0;left=0;bottom=0;right=0;collapsible=0;dropTarget=0;fillColor=none;points=[[0,0.5],[1,0.5]];portConstraint=eastwest;" vertex="1" parent="FVcaYwHXagqDAu146TD7-322">
          <mxGeometry y="230" width="150" height="40" as="geometry" />
        </mxCell>
        <mxCell id="FVcaYwHXagqDAu146TD7-337" value="receipt_id" style="shape=partialRectangle;html=1;whiteSpace=wrap;connectable=0;strokeColor=inherit;overflow=hidden;fillColor=none;top=0;left=0;bottom=0;right=0;pointerEvents=1;" vertex="1" parent="FVcaYwHXagqDAu146TD7-336">
          <mxGeometry width="150" height="40" as="geometry">
            <mxRectangle width="150" height="40" as="alternateBounds" />
          </mxGeometry>
        </mxCell>
        <mxCell id="FVcaYwHXagqDAu146TD7-331" value="" style="shape=tableRow;horizontal=0;startSize=0;swimlaneHead=0;swimlaneBody=0;strokeColor=inherit;top=0;left=0;bottom=0;right=0;collapsible=0;dropTarget=0;fillColor=none;points=[[0,0.5],[1,0.5]];portConstraint=eastwest;" vertex="1" parent="FVcaYwHXagqDAu146TD7-322">
          <mxGeometry y="270" width="150" height="40" as="geometry" />
        </mxCell>
        <mxCell id="FVcaYwHXagqDAu146TD7-332" value="payment_method" style="shape=partialRectangle;html=1;whiteSpace=wrap;connectable=0;strokeColor=inherit;overflow=hidden;fillColor=none;top=0;left=0;bottom=0;right=0;pointerEvents=1;" vertex="1" parent="FVcaYwHXagqDAu146TD7-331">
          <mxGeometry width="150" height="40" as="geometry">
            <mxRectangle width="150" height="40" as="alternateBounds" />
          </mxGeometry>
        </mxCell>
        <mxCell id="FVcaYwHXagqDAu146TD7-393" style="shape=tableRow;horizontal=0;startSize=0;swimlaneHead=0;swimlaneBody=0;strokeColor=inherit;top=0;left=0;bottom=0;right=0;collapsible=0;dropTarget=0;fillColor=none;points=[[0,0.5],[1,0.5]];portConstraint=eastwest;" vertex="1" parent="FVcaYwHXagqDAu146TD7-322">
          <mxGeometry y="310" width="150" height="40" as="geometry" />
        </mxCell>
        <mxCell id="FVcaYwHXagqDAu146TD7-394" value="wishlist_id" style="shape=partialRectangle;html=1;whiteSpace=wrap;connectable=0;strokeColor=inherit;overflow=hidden;fillColor=none;top=0;left=0;bottom=0;right=0;pointerEvents=1;" vertex="1" parent="FVcaYwHXagqDAu146TD7-393">
          <mxGeometry width="150" height="40" as="geometry">
            <mxRectangle width="150" height="40" as="alternateBounds" />
          </mxGeometry>
        </mxCell>
        <mxCell id="FVcaYwHXagqDAu146TD7-335" style="edgeStyle=none;curved=1;rounded=0;orthogonalLoop=1;jettySize=auto;html=1;exitX=1;exitY=0.5;exitDx=0;exitDy=0;entryX=0;entryY=0.5;entryDx=0;entryDy=0;fontSize=12;startSize=8;endSize=8;strokeColor=light-dark(#000000,#FFFF00);" edge="1" parent="1" source="FVcaYwHXagqDAu146TD7-197" target="FVcaYwHXagqDAu146TD7-325">
          <mxGeometry relative="1" as="geometry">
            <Array as="points">
              <mxPoint x="-1683" y="-519.5" />
              <mxPoint x="-1645" y="-109.5" />
            </Array>
          </mxGeometry>
        </mxCell>
        <mxCell id="FVcaYwHXagqDAu146TD7-338" value="Receipt" style="shape=table;startSize=30;container=1;collapsible=0;childLayout=tableLayout;fillColor=light-dark(#D5E8D4,#666600);strokeColor=#82b366;gradientColor=light-dark(#97D077,#56BF1B);fontStyle=1" vertex="1" parent="1">
          <mxGeometry x="-927" y="213" width="150" height="230" as="geometry" />
        </mxCell>
        <mxCell id="FVcaYwHXagqDAu146TD7-339" value="" style="shape=tableRow;horizontal=0;startSize=0;swimlaneHead=0;swimlaneBody=0;strokeColor=inherit;top=0;left=0;bottom=0;right=0;collapsible=0;dropTarget=0;fillColor=none;points=[[0,0.5],[1,0.5]];portConstraint=eastwest;" vertex="1" parent="FVcaYwHXagqDAu146TD7-338">
          <mxGeometry y="30" width="150" height="40" as="geometry" />
        </mxCell>
        <mxCell id="FVcaYwHXagqDAu146TD7-340" value="id" style="shape=partialRectangle;html=1;whiteSpace=wrap;connectable=0;strokeColor=inherit;overflow=hidden;fillColor=none;top=0;left=0;bottom=0;right=0;pointerEvents=1;" vertex="1" parent="FVcaYwHXagqDAu146TD7-339">
          <mxGeometry width="150" height="40" as="geometry">
            <mxRectangle width="150" height="40" as="alternateBounds" />
          </mxGeometry>
        </mxCell>
        <mxCell id="FVcaYwHXagqDAu146TD7-341" style="shape=tableRow;horizontal=0;startSize=0;swimlaneHead=0;swimlaneBody=0;strokeColor=inherit;top=0;left=0;bottom=0;right=0;collapsible=0;dropTarget=0;fillColor=none;points=[[0,0.5],[1,0.5]];portConstraint=eastwest;" vertex="1" parent="FVcaYwHXagqDAu146TD7-338">
          <mxGeometry y="70" width="150" height="40" as="geometry" />
        </mxCell>
        <mxCell id="FVcaYwHXagqDAu146TD7-342" value="consumer_id" style="shape=partialRectangle;html=1;whiteSpace=wrap;connectable=0;strokeColor=inherit;overflow=hidden;fillColor=none;top=0;left=0;bottom=0;right=0;pointerEvents=1;" vertex="1" parent="FVcaYwHXagqDAu146TD7-341">
          <mxGeometry width="150" height="40" as="geometry">
            <mxRectangle width="150" height="40" as="alternateBounds" />
          </mxGeometry>
        </mxCell>
        <mxCell id="FVcaYwHXagqDAu146TD7-343" value="" style="shape=tableRow;horizontal=0;startSize=0;swimlaneHead=0;swimlaneBody=0;strokeColor=inherit;top=0;left=0;bottom=0;right=0;collapsible=0;dropTarget=0;fillColor=none;points=[[0,0.5],[1,0.5]];portConstraint=eastwest;" vertex="1" parent="FVcaYwHXagqDAu146TD7-338">
          <mxGeometry y="110" width="150" height="40" as="geometry" />
        </mxCell>
        <mxCell id="FVcaYwHXagqDAu146TD7-344" value="total_value" style="shape=partialRectangle;html=1;whiteSpace=wrap;connectable=0;strokeColor=inherit;overflow=hidden;fillColor=none;top=0;left=0;bottom=0;right=0;pointerEvents=1;" vertex="1" parent="FVcaYwHXagqDAu146TD7-343">
          <mxGeometry width="150" height="40" as="geometry">
            <mxRectangle width="150" height="40" as="alternateBounds" />
          </mxGeometry>
        </mxCell>
        <mxCell id="FVcaYwHXagqDAu146TD7-345" style="shape=tableRow;horizontal=0;startSize=0;swimlaneHead=0;swimlaneBody=0;strokeColor=inherit;top=0;left=0;bottom=0;right=0;collapsible=0;dropTarget=0;fillColor=none;points=[[0,0.5],[1,0.5]];portConstraint=eastwest;" vertex="1" parent="FVcaYwHXagqDAu146TD7-338">
          <mxGeometry y="150" width="150" height="40" as="geometry" />
        </mxCell>
        <mxCell id="FVcaYwHXagqDAu146TD7-346" value="payment_method" style="shape=partialRectangle;html=1;whiteSpace=wrap;connectable=0;strokeColor=inherit;overflow=hidden;fillColor=none;top=0;left=0;bottom=0;right=0;pointerEvents=1;" vertex="1" parent="FVcaYwHXagqDAu146TD7-345">
          <mxGeometry width="150" height="40" as="geometry">
            <mxRectangle width="150" height="40" as="alternateBounds" />
          </mxGeometry>
        </mxCell>
        <mxCell id="FVcaYwHXagqDAu146TD7-347" value="" style="shape=tableRow;horizontal=0;startSize=0;swimlaneHead=0;swimlaneBody=0;strokeColor=inherit;top=0;left=0;bottom=0;right=0;collapsible=0;dropTarget=0;fillColor=none;points=[[0,0.5],[1,0.5]];portConstraint=eastwest;" vertex="1" parent="FVcaYwHXagqDAu146TD7-338">
          <mxGeometry y="190" width="150" height="40" as="geometry" />
        </mxCell>
        <mxCell id="FVcaYwHXagqDAu146TD7-348" value="date" style="shape=partialRectangle;html=1;whiteSpace=wrap;connectable=0;strokeColor=inherit;overflow=hidden;fillColor=none;top=0;left=0;bottom=0;right=0;pointerEvents=1;" vertex="1" parent="FVcaYwHXagqDAu146TD7-347">
          <mxGeometry width="150" height="40" as="geometry">
            <mxRectangle width="150" height="40" as="alternateBounds" />
          </mxGeometry>
        </mxCell>
        <mxCell id="FVcaYwHXagqDAu146TD7-353" style="edgeStyle=none;curved=1;rounded=0;orthogonalLoop=1;jettySize=auto;html=1;exitX=1;exitY=0.5;exitDx=0;exitDy=0;entryX=0;entryY=0.5;entryDx=0;entryDy=0;fontSize=12;startSize=8;endSize=8;strokeColor=light-dark(#000000,#FFFF00);" edge="1" parent="1" source="FVcaYwHXagqDAu146TD7-197" target="FVcaYwHXagqDAu146TD7-341">
          <mxGeometry relative="1" as="geometry">
            <Array as="points">
              <mxPoint x="-1619" y="-609" />
              <mxPoint x="-1567" y="-480" />
              <mxPoint x="-1373" y="-455" />
              <mxPoint x="-1265" y="-342" />
              <mxPoint x="-1282" y="311" />
            </Array>
          </mxGeometry>
        </mxCell>
        <mxCell id="FVcaYwHXagqDAu146TD7-356" style="edgeStyle=none;curved=1;rounded=0;orthogonalLoop=1;jettySize=auto;html=1;exitX=0;exitY=0.5;exitDx=0;exitDy=0;entryX=1;entryY=0.5;entryDx=0;entryDy=0;fontSize=12;startSize=8;endSize=8;strokeColor=light-dark(#000000,#33FFFF);" edge="1" parent="1" source="FVcaYwHXagqDAu146TD7-15" target="FVcaYwHXagqDAu146TD7-464">
          <mxGeometry relative="1" as="geometry">
            <mxPoint x="-226" y="-1188" as="targetPoint" />
            <Array as="points">
              <mxPoint x="114" y="-685" />
              <mxPoint x="-18" y="-1103" />
            </Array>
          </mxGeometry>
        </mxCell>
        <mxCell id="FVcaYwHXagqDAu146TD7-357" style="edgeStyle=none;curved=1;rounded=0;orthogonalLoop=1;jettySize=auto;html=1;exitX=0;exitY=0.5;exitDx=0;exitDy=0;entryX=1;entryY=0.5;entryDx=0;entryDy=0;fontSize=12;startSize=8;endSize=8;strokeColor=light-dark(#000000,#00FFFF);" edge="1" parent="1" source="FVcaYwHXagqDAu146TD7-15" target="FVcaYwHXagqDAu146TD7-191">
          <mxGeometry relative="1" as="geometry" />
        </mxCell>
        <mxCell id="FVcaYwHXagqDAu146TD7-360" style="edgeStyle=none;curved=1;rounded=0;orthogonalLoop=1;jettySize=auto;html=1;exitX=0;exitY=0.5;exitDx=0;exitDy=0;entryX=1;entryY=0.5;entryDx=0;entryDy=0;fontSize=12;startSize=8;endSize=8;strokeColor=light-dark(#000000,#00FFFF);" edge="1" parent="1" source="FVcaYwHXagqDAu146TD7-15" target="FVcaYwHXagqDAu146TD7-413">
          <mxGeometry relative="1" as="geometry">
            <mxPoint x="-225.99999999999955" y="-256" as="targetPoint" />
            <Array as="points">
              <mxPoint x="85" y="-612" />
              <mxPoint x="55" y="-406" />
              <mxPoint x="-94" y="-262" />
            </Array>
          </mxGeometry>
        </mxCell>
        <mxCell id="FVcaYwHXagqDAu146TD7-89" value="" style="shape=table;startSize=0;container=1;collapsible=0;childLayout=tableLayout;" vertex="1" parent="1">
          <mxGeometry x="-377" y="-32" width="150" height="238.5" as="geometry" />
        </mxCell>
        <mxCell id="FVcaYwHXagqDAu146TD7-90" value="" style="shape=tableRow;horizontal=0;startSize=0;swimlaneHead=0;swimlaneBody=0;strokeColor=#001DBC;top=0;left=0;bottom=0;right=0;collapsible=0;dropTarget=0;fillColor=#0050ef;points=[[0,0.5],[1,0.5]];portConstraint=eastwest;fontColor=#ffffff;" vertex="1" parent="FVcaYwHXagqDAu146TD7-89">
          <mxGeometry width="150" height="35" as="geometry" />
        </mxCell>
        <mxCell id="FVcaYwHXagqDAu146TD7-91" value="&lt;span style=&quot;text-wrap-mode: nowrap;&quot;&gt;&lt;b&gt;Photos&lt;/b&gt;&lt;/span&gt;" style="shape=partialRectangle;html=1;whiteSpace=wrap;connectable=0;strokeColor=#3700CC;overflow=hidden;fillColor=#6a00ff;top=0;left=0;bottom=0;right=0;pointerEvents=1;fontColor=#ffffff;" vertex="1" parent="FVcaYwHXagqDAu146TD7-90">
          <mxGeometry width="150" height="35" as="geometry">
            <mxRectangle width="150" height="35" as="alternateBounds" />
          </mxGeometry>
        </mxCell>
        <mxCell id="FVcaYwHXagqDAu146TD7-92" value="" style="shape=tableRow;horizontal=0;startSize=0;swimlaneHead=0;swimlaneBody=0;strokeColor=inherit;top=0;left=0;bottom=0;right=0;collapsible=0;dropTarget=0;fillColor=none;points=[[0,0.5],[1,0.5]];portConstraint=eastwest;" vertex="1" parent="FVcaYwHXagqDAu146TD7-89">
          <mxGeometry y="35" width="150" height="44" as="geometry" />
        </mxCell>
        <mxCell id="FVcaYwHXagqDAu146TD7-93" value="photo_id" style="shape=partialRectangle;html=1;whiteSpace=wrap;connectable=0;strokeColor=inherit;overflow=hidden;fillColor=none;top=0;left=0;bottom=0;right=0;pointerEvents=1;" vertex="1" parent="FVcaYwHXagqDAu146TD7-92">
          <mxGeometry width="150" height="44" as="geometry">
            <mxRectangle width="150" height="44" as="alternateBounds" />
          </mxGeometry>
        </mxCell>
        <mxCell id="FVcaYwHXagqDAu146TD7-94" value="" style="shape=tableRow;horizontal=0;startSize=0;swimlaneHead=0;swimlaneBody=0;strokeColor=inherit;top=0;left=0;bottom=0;right=0;collapsible=0;dropTarget=0;fillColor=none;points=[[0,0.5],[1,0.5]];portConstraint=eastwest;" vertex="1" parent="FVcaYwHXagqDAu146TD7-89">
          <mxGeometry y="79" width="150" height="40" as="geometry" />
        </mxCell>
        <mxCell id="FVcaYwHXagqDAu146TD7-95" value="source" style="shape=partialRectangle;html=1;whiteSpace=wrap;connectable=0;strokeColor=inherit;overflow=hidden;fillColor=none;top=0;left=0;bottom=0;right=0;pointerEvents=1;" vertex="1" parent="FVcaYwHXagqDAu146TD7-94">
          <mxGeometry width="150" height="40" as="geometry">
            <mxRectangle width="150" height="40" as="alternateBounds" />
          </mxGeometry>
        </mxCell>
        <mxCell id="FVcaYwHXagqDAu146TD7-96" value="" style="shape=tableRow;horizontal=0;startSize=0;swimlaneHead=0;swimlaneBody=0;strokeColor=inherit;top=0;left=0;bottom=0;right=0;collapsible=0;dropTarget=0;fillColor=none;points=[[0,0.5],[1,0.5]];portConstraint=eastwest;" vertex="1" parent="FVcaYwHXagqDAu146TD7-89">
          <mxGeometry y="119" width="150" height="40" as="geometry" />
        </mxCell>
        <mxCell id="FVcaYwHXagqDAu146TD7-97" value="added_by" style="shape=partialRectangle;html=1;whiteSpace=wrap;connectable=0;strokeColor=inherit;overflow=hidden;fillColor=none;top=0;left=0;bottom=0;right=0;pointerEvents=1;" vertex="1" parent="FVcaYwHXagqDAu146TD7-96">
          <mxGeometry width="150" height="40" as="geometry">
            <mxRectangle width="150" height="40" as="alternateBounds" />
          </mxGeometry>
        </mxCell>
        <mxCell id="FVcaYwHXagqDAu146TD7-98" value="" style="shape=tableRow;horizontal=0;startSize=0;swimlaneHead=0;swimlaneBody=0;strokeColor=inherit;top=0;left=0;bottom=0;right=0;collapsible=0;dropTarget=0;fillColor=none;points=[[0,0.5],[1,0.5]];portConstraint=eastwest;" vertex="1" parent="FVcaYwHXagqDAu146TD7-89">
          <mxGeometry y="159" width="150" height="40" as="geometry" />
        </mxCell>
        <mxCell id="FVcaYwHXagqDAu146TD7-99" value="photo_usage" style="shape=partialRectangle;html=1;whiteSpace=wrap;connectable=0;strokeColor=inherit;overflow=hidden;fillColor=none;top=0;left=0;bottom=0;right=0;pointerEvents=1;" vertex="1" parent="FVcaYwHXagqDAu146TD7-98">
          <mxGeometry width="150" height="40" as="geometry">
            <mxRectangle width="150" height="40" as="alternateBounds" />
          </mxGeometry>
        </mxCell>
        <mxCell id="FVcaYwHXagqDAu146TD7-362" style="shape=tableRow;horizontal=0;startSize=0;swimlaneHead=0;swimlaneBody=0;strokeColor=inherit;top=0;left=0;bottom=0;right=0;collapsible=0;dropTarget=0;fillColor=none;points=[[0,0.5],[1,0.5]];portConstraint=eastwest;" vertex="1" parent="FVcaYwHXagqDAu146TD7-89">
          <mxGeometry y="199" width="150" height="40" as="geometry" />
        </mxCell>
        <mxCell id="FVcaYwHXagqDAu146TD7-363" value="description" style="shape=partialRectangle;html=1;whiteSpace=wrap;connectable=0;strokeColor=inherit;overflow=hidden;fillColor=none;top=0;left=0;bottom=0;right=0;pointerEvents=1;" vertex="1" parent="FVcaYwHXagqDAu146TD7-362">
          <mxGeometry width="150" height="40" as="geometry">
            <mxRectangle width="150" height="40" as="alternateBounds" />
          </mxGeometry>
        </mxCell>
        <mxCell id="FVcaYwHXagqDAu146TD7-361" style="edgeStyle=none;curved=1;rounded=0;orthogonalLoop=1;jettySize=auto;html=1;exitX=0;exitY=0.5;exitDx=0;exitDy=0;entryX=1;entryY=0.5;entryDx=0;entryDy=0;fontSize=12;startSize=8;endSize=8;strokeColor=light-dark(#000000,#00FFFF);" edge="1" parent="1" source="FVcaYwHXagqDAu146TD7-15" target="FVcaYwHXagqDAu146TD7-96">
          <mxGeometry relative="1" as="geometry">
            <Array as="points">
              <mxPoint x="54" y="-268" />
              <mxPoint x="-89" y="115" />
            </Array>
          </mxGeometry>
        </mxCell>
        <mxCell id="FVcaYwHXagqDAu146TD7-366" value="Consumer_breadcrums" style="shape=table;startSize=30;container=1;collapsible=0;childLayout=tableLayout;fillColor=light-dark(#FFF2CC,#FFFF00);strokeColor=#d6b656;gradientColor=light-dark(#FFD966,#00FF00);fontStyle=1;fontColor=light-dark(#000000,#000000);" vertex="1" parent="1">
          <mxGeometry x="-1549" y="-762.5" width="150" height="230" as="geometry" />
        </mxCell>
        <mxCell id="FVcaYwHXagqDAu146TD7-382" style="shape=tableRow;horizontal=0;startSize=0;swimlaneHead=0;swimlaneBody=0;strokeColor=inherit;top=0;left=0;bottom=0;right=0;collapsible=0;dropTarget=0;fillColor=none;points=[[0,0.5],[1,0.5]];portConstraint=eastwest;" vertex="1" parent="FVcaYwHXagqDAu146TD7-366">
          <mxGeometry y="30" width="150" height="40" as="geometry" />
        </mxCell>
        <mxCell id="FVcaYwHXagqDAu146TD7-383" value="breadcrum_id" style="shape=partialRectangle;html=1;whiteSpace=wrap;connectable=0;strokeColor=inherit;overflow=hidden;fillColor=none;top=0;left=0;bottom=0;right=0;pointerEvents=1;" vertex="1" parent="FVcaYwHXagqDAu146TD7-382">
          <mxGeometry width="150" height="40" as="geometry">
            <mxRectangle width="150" height="40" as="alternateBounds" />
          </mxGeometry>
        </mxCell>
        <mxCell id="FVcaYwHXagqDAu146TD7-367" value="" style="shape=tableRow;horizontal=0;startSize=0;swimlaneHead=0;swimlaneBody=0;strokeColor=inherit;top=0;left=0;bottom=0;right=0;collapsible=0;dropTarget=0;fillColor=none;points=[[0,0.5],[1,0.5]];portConstraint=eastwest;" vertex="1" parent="FVcaYwHXagqDAu146TD7-366">
          <mxGeometry y="70" width="150" height="40" as="geometry" />
        </mxCell>
        <mxCell id="FVcaYwHXagqDAu146TD7-368" value="consumer_id" style="shape=partialRectangle;html=1;whiteSpace=wrap;connectable=0;strokeColor=inherit;overflow=hidden;fillColor=none;top=0;left=0;bottom=0;right=0;pointerEvents=1;" vertex="1" parent="FVcaYwHXagqDAu146TD7-367">
          <mxGeometry width="150" height="40" as="geometry">
            <mxRectangle width="150" height="40" as="alternateBounds" />
          </mxGeometry>
        </mxCell>
        <mxCell id="FVcaYwHXagqDAu146TD7-369" value="" style="shape=tableRow;horizontal=0;startSize=0;swimlaneHead=0;swimlaneBody=0;strokeColor=inherit;top=0;left=0;bottom=0;right=0;collapsible=0;dropTarget=0;fillColor=none;points=[[0,0.5],[1,0.5]];portConstraint=eastwest;" vertex="1" parent="FVcaYwHXagqDAu146TD7-366">
          <mxGeometry y="110" width="150" height="40" as="geometry" />
        </mxCell>
        <mxCell id="FVcaYwHXagqDAu146TD7-370" value="page_id" style="shape=partialRectangle;html=1;whiteSpace=wrap;connectable=0;strokeColor=inherit;overflow=hidden;fillColor=none;top=0;left=0;bottom=0;right=0;pointerEvents=1;" vertex="1" parent="FVcaYwHXagqDAu146TD7-369">
          <mxGeometry width="150" height="40" as="geometry">
            <mxRectangle width="150" height="40" as="alternateBounds" />
          </mxGeometry>
        </mxCell>
        <mxCell id="FVcaYwHXagqDAu146TD7-371" value="" style="shape=tableRow;horizontal=0;startSize=0;swimlaneHead=0;swimlaneBody=0;strokeColor=inherit;top=0;left=0;bottom=0;right=0;collapsible=0;dropTarget=0;fillColor=none;points=[[0,0.5],[1,0.5]];portConstraint=eastwest;" vertex="1" parent="FVcaYwHXagqDAu146TD7-366">
          <mxGeometry y="150" width="150" height="40" as="geometry" />
        </mxCell>
        <mxCell id="FVcaYwHXagqDAu146TD7-372" value="visit_date" style="shape=partialRectangle;html=1;whiteSpace=wrap;connectable=0;strokeColor=inherit;overflow=hidden;fillColor=none;top=0;left=0;bottom=0;right=0;pointerEvents=1;" vertex="1" parent="FVcaYwHXagqDAu146TD7-371">
          <mxGeometry width="150" height="40" as="geometry">
            <mxRectangle width="150" height="40" as="alternateBounds" />
          </mxGeometry>
        </mxCell>
        <mxCell id="FVcaYwHXagqDAu146TD7-373" value="" style="shape=tableRow;horizontal=0;startSize=0;swimlaneHead=0;swimlaneBody=0;strokeColor=inherit;top=0;left=0;bottom=0;right=0;collapsible=0;dropTarget=0;fillColor=none;points=[[0,0.5],[1,0.5]];portConstraint=eastwest;" vertex="1" parent="FVcaYwHXagqDAu146TD7-366">
          <mxGeometry y="190" width="150" height="40" as="geometry" />
        </mxCell>
        <mxCell id="FVcaYwHXagqDAu146TD7-374" value="time_spent" style="shape=partialRectangle;html=1;whiteSpace=wrap;connectable=0;strokeColor=inherit;overflow=hidden;fillColor=none;top=0;left=0;bottom=0;right=0;pointerEvents=1;" vertex="1" parent="FVcaYwHXagqDAu146TD7-373">
          <mxGeometry width="150" height="40" as="geometry">
            <mxRectangle width="150" height="40" as="alternateBounds" />
          </mxGeometry>
        </mxCell>
        <mxCell id="FVcaYwHXagqDAu146TD7-381" style="edgeStyle=none;curved=1;rounded=0;orthogonalLoop=1;jettySize=auto;html=1;exitX=1;exitY=0.5;exitDx=0;exitDy=0;entryX=0;entryY=0.5;entryDx=0;entryDy=0;fontSize=12;startSize=8;endSize=8;strokeColor=light-dark(#000000,#FFFF00);" edge="1" parent="1" source="FVcaYwHXagqDAu146TD7-197" target="FVcaYwHXagqDAu146TD7-367">
          <mxGeometry relative="1" as="geometry">
            <Array as="points">
              <mxPoint x="-1640" y="-920.5" />
              <mxPoint x="-1609" y="-712.5" />
            </Array>
          </mxGeometry>
        </mxCell>
        <mxCell id="FVcaYwHXagqDAu146TD7-384" style="edgeStyle=none;curved=1;rounded=0;orthogonalLoop=1;jettySize=auto;html=1;exitX=1;exitY=0.5;exitDx=0;exitDy=0;entryX=0;entryY=0.5;entryDx=0;entryDy=0;fontSize=12;startSize=8;endSize=8;" edge="1" parent="1" source="FVcaYwHXagqDAu146TD7-382" target="FVcaYwHXagqDAu146TD7-228">
          <mxGeometry relative="1" as="geometry" />
        </mxCell>
        <mxCell id="FVcaYwHXagqDAu146TD7-387" style="edgeStyle=none;curved=1;rounded=0;orthogonalLoop=1;jettySize=auto;html=1;fontSize=12;startSize=8;endSize=8;entryX=0;entryY=0.5;entryDx=0;entryDy=0;" edge="1" parent="1" source="FVcaYwHXagqDAu146TD7-385" target="FVcaYwHXagqDAu146TD7-482">
          <mxGeometry relative="1" as="geometry">
            <mxPoint x="-409" y="-830" as="targetPoint" />
          </mxGeometry>
        </mxCell>
        <mxCell id="FVcaYwHXagqDAu146TD7-385" value="Counter" style="rounded=0;whiteSpace=wrap;html=1;fillColor=#f8cecc;gradientColor=light-dark(#EA6B66,#660033);strokeColor=#b85450;" vertex="1" parent="1">
          <mxGeometry x="-670" y="-777" width="160" height="80" as="geometry" />
        </mxCell>
        <mxCell id="FVcaYwHXagqDAu146TD7-386" style="edgeStyle=none;curved=1;rounded=0;orthogonalLoop=1;jettySize=auto;html=1;entryX=0;entryY=0.5;entryDx=0;entryDy=0;fontSize=12;startSize=8;endSize=8;" edge="1" parent="1" source="FVcaYwHXagqDAu146TD7-228" target="FVcaYwHXagqDAu146TD7-385">
          <mxGeometry relative="1" as="geometry" />
        </mxCell>
        <mxCell id="FVcaYwHXagqDAu146TD7-390" style="edgeStyle=none;curved=1;rounded=0;orthogonalLoop=1;jettySize=auto;html=1;exitX=1;exitY=0.5;exitDx=0;exitDy=0;fontSize=12;startSize=8;endSize=8;entryX=0;entryY=0.5;entryDx=0;entryDy=0;" edge="1" parent="1" source="FVcaYwHXagqDAu146TD7-388" target="FVcaYwHXagqDAu146TD7-484">
          <mxGeometry relative="1" as="geometry">
            <mxPoint x="-396" y="-786" as="targetPoint" />
            <Array as="points">
              <mxPoint x="-416" y="-483" />
              <mxPoint x="-453" y="-735" />
            </Array>
          </mxGeometry>
        </mxCell>
        <mxCell id="FVcaYwHXagqDAu146TD7-388" value="Counter" style="rounded=0;whiteSpace=wrap;html=1;fillColor=#f8cecc;gradientColor=light-dark(#EA6B66,#660033);strokeColor=#b85450;" vertex="1" parent="1">
          <mxGeometry x="-660" y="-528" width="160" height="80" as="geometry" />
        </mxCell>
        <mxCell id="FVcaYwHXagqDAu146TD7-392" style="edgeStyle=none;curved=1;rounded=0;orthogonalLoop=1;jettySize=auto;html=1;exitX=1;exitY=0.5;exitDx=0;exitDy=0;entryX=0;entryY=0.5;entryDx=0;entryDy=0;fontSize=12;startSize=8;endSize=8;" edge="1" parent="1" source="FVcaYwHXagqDAu146TD7-323" target="FVcaYwHXagqDAu146TD7-388">
          <mxGeometry relative="1" as="geometry">
            <Array as="points">
              <mxPoint x="-781" y="-103" />
              <mxPoint x="-745" y="-485" />
            </Array>
          </mxGeometry>
        </mxCell>
        <mxCell id="FVcaYwHXagqDAu146TD7-395" style="edgeStyle=none;curved=1;rounded=0;orthogonalLoop=1;jettySize=auto;html=1;exitX=1;exitY=0.5;exitDx=0;exitDy=0;entryX=1;entryY=0.5;entryDx=0;entryDy=0;fontSize=12;startSize=8;endSize=8;" edge="1" parent="1" source="FVcaYwHXagqDAu146TD7-308" target="FVcaYwHXagqDAu146TD7-393">
          <mxGeometry relative="1" as="geometry">
            <Array as="points">
              <mxPoint x="-1060" y="-93" />
            </Array>
          </mxGeometry>
        </mxCell>
        <mxCell id="FVcaYwHXagqDAu146TD7-396" style="edgeStyle=none;curved=1;rounded=0;orthogonalLoop=1;jettySize=auto;html=1;entryX=1;entryY=0.5;entryDx=0;entryDy=0;fontSize=12;startSize=8;endSize=8;exitX=0;exitY=0.5;exitDx=0;exitDy=0;" edge="1" parent="1" source="FVcaYwHXagqDAu146TD7-460" target="FVcaYwHXagqDAu146TD7-327">
          <mxGeometry relative="1" as="geometry">
            <mxPoint x="-468" y="-1269" as="sourcePoint" />
            <Array as="points">
              <mxPoint x="-460" y="-1182" />
              <mxPoint x="-432" y="-859" />
              <mxPoint x="-401" y="-518" />
              <mxPoint x="-460" y="-370" />
            </Array>
          </mxGeometry>
        </mxCell>
        <mxCell id="FVcaYwHXagqDAu146TD7-397" style="edgeStyle=none;curved=1;rounded=0;orthogonalLoop=1;jettySize=auto;html=1;exitX=0;exitY=0.5;exitDx=0;exitDy=0;entryX=1;entryY=0.5;entryDx=0;entryDy=0;fontSize=12;startSize=8;endSize=8;" edge="1" parent="1" source="FVcaYwHXagqDAu146TD7-468" target="FVcaYwHXagqDAu146TD7-333">
          <mxGeometry relative="1" as="geometry">
            <mxPoint x="-376" y="-1108" as="sourcePoint" />
            <Array as="points">
              <mxPoint x="-488" y="-999" />
              <mxPoint x="-400" y="-221" />
            </Array>
          </mxGeometry>
        </mxCell>
        <mxCell id="FVcaYwHXagqDAu146TD7-398" style="edgeStyle=none;curved=1;rounded=0;orthogonalLoop=1;jettySize=auto;html=1;exitX=1;exitY=0.5;exitDx=0;exitDy=0;fontSize=12;startSize=8;endSize=8;strokeColor=light-dark(#000000,#CC0000);entryX=1;entryY=0.5;entryDx=0;entryDy=0;" edge="1" parent="1" source="FVcaYwHXagqDAu146TD7-171" target="FVcaYwHXagqDAu146TD7-470">
          <mxGeometry relative="1" as="geometry">
            <mxPoint x="-138" y="-1052" as="targetPoint" />
            <Array as="points">
              <mxPoint x="64" y="-839" />
            </Array>
          </mxGeometry>
        </mxCell>
        <mxCell id="FVcaYwHXagqDAu146TD7-399" style="edgeStyle=none;curved=1;rounded=0;orthogonalLoop=1;jettySize=auto;html=1;exitX=1;exitY=0.5;exitDx=0;exitDy=0;entryX=0;entryY=0.5;entryDx=0;entryDy=0;fontSize=12;startSize=8;endSize=8;" edge="1" parent="1" source="FVcaYwHXagqDAu146TD7-274" target="FVcaYwHXagqDAu146TD7-480">
          <mxGeometry relative="1" as="geometry">
            <mxPoint x="-376" y="-868.5000000000002" as="targetPoint" />
            <Array as="points">
              <mxPoint x="-941" y="-1443" />
              <mxPoint x="-673" y="-1093" />
              <mxPoint x="-528" y="-905" />
              <mxPoint x="-451" y="-869" />
            </Array>
          </mxGeometry>
        </mxCell>
        <mxCell id="FVcaYwHXagqDAu146TD7-404" style="edgeStyle=none;curved=1;rounded=0;orthogonalLoop=1;jettySize=auto;html=1;exitX=1;exitY=0.5;exitDx=0;exitDy=0;fontSize=12;startSize=8;endSize=8;entryX=0;entryY=0.5;entryDx=0;entryDy=0;" edge="1" parent="1" source="FVcaYwHXagqDAu146TD7-402" target="FVcaYwHXagqDAu146TD7-486">
          <mxGeometry relative="1" as="geometry">
            <mxPoint x="-394" y="-748" as="targetPoint" />
          </mxGeometry>
        </mxCell>
        <mxCell id="FVcaYwHXagqDAu146TD7-402" value="Average Counter" style="rounded=0;whiteSpace=wrap;html=1;fillColor=#f8cecc;gradientColor=light-dark(#EA6B66,#660033);strokeColor=#b85450;" vertex="1" parent="1">
          <mxGeometry x="-860" y="-1029" width="160" height="80" as="geometry" />
        </mxCell>
        <mxCell id="FVcaYwHXagqDAu146TD7-403" style="edgeStyle=none;curved=1;rounded=0;orthogonalLoop=1;jettySize=auto;html=1;exitX=1;exitY=0.5;exitDx=0;exitDy=0;entryX=0;entryY=0.5;entryDx=0;entryDy=0;fontSize=12;startSize=8;endSize=8;" edge="1" parent="1" source="FVcaYwHXagqDAu146TD7-280" target="FVcaYwHXagqDAu146TD7-402">
          <mxGeometry relative="1" as="geometry">
            <Array as="points">
              <mxPoint x="-1003" y="-1177" />
              <mxPoint x="-940" y="-1015" />
            </Array>
          </mxGeometry>
        </mxCell>
        <mxCell id="FVcaYwHXagqDAu146TD7-405" style="edgeStyle=none;curved=1;rounded=0;orthogonalLoop=1;jettySize=auto;html=1;exitX=1;exitY=0.5;exitDx=0;exitDy=0;entryX=1;entryY=0.5;entryDx=0;entryDy=0;fontSize=12;startSize=8;endSize=8;strokeColor=light-dark(#000000,#FF3399);" edge="1" parent="1" source="FVcaYwHXagqDAu146TD7-92" target="FVcaYwHXagqDAu146TD7-476">
          <mxGeometry relative="1" as="geometry">
            <mxPoint x="-226" y="-948" as="targetPoint" />
            <Array as="points">
              <mxPoint x="53" y="-502" />
            </Array>
          </mxGeometry>
        </mxCell>
        <mxCell id="FVcaYwHXagqDAu146TD7-406" style="edgeStyle=none;curved=1;rounded=0;orthogonalLoop=1;jettySize=auto;html=1;exitX=1;exitY=0.5;exitDx=0;exitDy=0;fontSize=12;startSize=8;endSize=8;strokeColor=light-dark(#000000,#FF3399);entryX=1;entryY=0.5;entryDx=0;entryDy=0;" edge="1" parent="1" source="FVcaYwHXagqDAu146TD7-92" target="FVcaYwHXagqDAu146TD7-478">
          <mxGeometry relative="1" as="geometry">
            <mxPoint x="14" y="-790" as="targetPoint" />
            <Array as="points">
              <mxPoint x="-1" y="-525" />
            </Array>
          </mxGeometry>
        </mxCell>
        <mxCell id="FVcaYwHXagqDAu146TD7-409" style="edgeStyle=none;curved=1;rounded=0;orthogonalLoop=1;jettySize=auto;html=1;exitX=1;exitY=0.5;exitDx=0;exitDy=0;entryX=1;entryY=0.5;entryDx=0;entryDy=0;fontSize=12;startSize=8;endSize=8;strokeColor=light-dark(#000000,#FF3399);" edge="1" parent="1" source="FVcaYwHXagqDAu146TD7-92" target="FVcaYwHXagqDAu146TD7-419">
          <mxGeometry relative="1" as="geometry">
            <mxPoint x="-225.99999999999955" y="-90" as="targetPoint" />
            <Array as="points">
              <mxPoint x="-118" y="-39" />
            </Array>
          </mxGeometry>
        </mxCell>
        <mxCell id="FVcaYwHXagqDAu146TD7-410" value="Post" style="shape=table;startSize=30;container=1;collapsible=0;childLayout=tableLayout;fillColor=light-dark(#F8CECC,#0000FF);strokeColor=#b85450;gradientColor=#ea6b66;fontStyle=1" vertex="1" parent="1">
          <mxGeometry x="-377" y="-335" width="150" height="230" as="geometry" />
        </mxCell>
        <mxCell id="FVcaYwHXagqDAu146TD7-411" value="" style="shape=tableRow;horizontal=0;startSize=0;swimlaneHead=0;swimlaneBody=0;strokeColor=inherit;top=0;left=0;bottom=0;right=0;collapsible=0;dropTarget=0;fillColor=none;points=[[0,0.5],[1,0.5]];portConstraint=eastwest;" vertex="1" parent="FVcaYwHXagqDAu146TD7-410">
          <mxGeometry y="30" width="150" height="40" as="geometry" />
        </mxCell>
        <mxCell id="FVcaYwHXagqDAu146TD7-412" value="post_id" style="shape=partialRectangle;html=1;whiteSpace=wrap;connectable=0;strokeColor=inherit;overflow=hidden;fillColor=none;top=0;left=0;bottom=0;right=0;pointerEvents=1;" vertex="1" parent="FVcaYwHXagqDAu146TD7-411">
          <mxGeometry width="150" height="40" as="geometry">
            <mxRectangle width="150" height="40" as="alternateBounds" />
          </mxGeometry>
        </mxCell>
        <mxCell id="FVcaYwHXagqDAu146TD7-413" style="shape=tableRow;horizontal=0;startSize=0;swimlaneHead=0;swimlaneBody=0;strokeColor=inherit;top=0;left=0;bottom=0;right=0;collapsible=0;dropTarget=0;fillColor=none;points=[[0,0.5],[1,0.5]];portConstraint=eastwest;" vertex="1" parent="FVcaYwHXagqDAu146TD7-410">
          <mxGeometry y="70" width="150" height="40" as="geometry" />
        </mxCell>
        <mxCell id="FVcaYwHXagqDAu146TD7-414" value="added_by" style="shape=partialRectangle;html=1;whiteSpace=wrap;connectable=0;strokeColor=inherit;overflow=hidden;fillColor=none;top=0;left=0;bottom=0;right=0;pointerEvents=1;" vertex="1" parent="FVcaYwHXagqDAu146TD7-413">
          <mxGeometry width="150" height="40" as="geometry">
            <mxRectangle width="150" height="40" as="alternateBounds" />
          </mxGeometry>
        </mxCell>
        <mxCell id="FVcaYwHXagqDAu146TD7-415" value="" style="shape=tableRow;horizontal=0;startSize=0;swimlaneHead=0;swimlaneBody=0;strokeColor=inherit;top=0;left=0;bottom=0;right=0;collapsible=0;dropTarget=0;fillColor=none;points=[[0,0.5],[1,0.5]];portConstraint=eastwest;" vertex="1" parent="FVcaYwHXagqDAu146TD7-410">
          <mxGeometry y="110" width="150" height="40" as="geometry" />
        </mxCell>
        <mxCell id="FVcaYwHXagqDAu146TD7-416" value="title" style="shape=partialRectangle;html=1;whiteSpace=wrap;connectable=0;strokeColor=inherit;overflow=hidden;fillColor=none;top=0;left=0;bottom=0;right=0;pointerEvents=1;" vertex="1" parent="FVcaYwHXagqDAu146TD7-415">
          <mxGeometry width="150" height="40" as="geometry">
            <mxRectangle width="150" height="40" as="alternateBounds" />
          </mxGeometry>
        </mxCell>
        <mxCell id="FVcaYwHXagqDAu146TD7-417" style="shape=tableRow;horizontal=0;startSize=0;swimlaneHead=0;swimlaneBody=0;strokeColor=inherit;top=0;left=0;bottom=0;right=0;collapsible=0;dropTarget=0;fillColor=none;points=[[0,0.5],[1,0.5]];portConstraint=eastwest;" vertex="1" parent="FVcaYwHXagqDAu146TD7-410">
          <mxGeometry y="150" width="150" height="40" as="geometry" />
        </mxCell>
        <mxCell id="FVcaYwHXagqDAu146TD7-418" value="call_to_action" style="shape=partialRectangle;html=1;whiteSpace=wrap;connectable=0;strokeColor=inherit;overflow=hidden;fillColor=none;top=0;left=0;bottom=0;right=0;pointerEvents=1;" vertex="1" parent="FVcaYwHXagqDAu146TD7-417">
          <mxGeometry width="150" height="40" as="geometry">
            <mxRectangle width="150" height="40" as="alternateBounds" />
          </mxGeometry>
        </mxCell>
        <mxCell id="FVcaYwHXagqDAu146TD7-419" value="" style="shape=tableRow;horizontal=0;startSize=0;swimlaneHead=0;swimlaneBody=0;strokeColor=inherit;top=0;left=0;bottom=0;right=0;collapsible=0;dropTarget=0;fillColor=none;points=[[0,0.5],[1,0.5]];portConstraint=eastwest;" vertex="1" parent="FVcaYwHXagqDAu146TD7-410">
          <mxGeometry y="190" width="150" height="40" as="geometry" />
        </mxCell>
        <mxCell id="FVcaYwHXagqDAu146TD7-420" value="photo_ids" style="shape=partialRectangle;html=1;whiteSpace=wrap;connectable=0;strokeColor=inherit;overflow=hidden;fillColor=none;top=0;left=0;bottom=0;right=0;pointerEvents=1;" vertex="1" parent="FVcaYwHXagqDAu146TD7-419">
          <mxGeometry width="150" height="40" as="geometry">
            <mxRectangle width="150" height="40" as="alternateBounds" />
          </mxGeometry>
        </mxCell>
        <mxCell id="FVcaYwHXagqDAu146TD7-459" value="Products" style="shape=table;startSize=30;container=1;collapsible=0;childLayout=tableLayout;fillColor=light-dark(#D5E8D4,#00CC00);gradientColor=light-dark(#97D077,#003300);strokeColor=#82b366;fontStyle=1" vertex="1" parent="1">
          <mxGeometry x="-377" y="-1345" width="150" height="630" as="geometry" />
        </mxCell>
        <mxCell id="FVcaYwHXagqDAu146TD7-460" value="" style="shape=tableRow;horizontal=0;startSize=0;swimlaneHead=0;swimlaneBody=0;strokeColor=inherit;top=0;left=0;bottom=0;right=0;collapsible=0;dropTarget=0;fillColor=none;points=[[0,0.5],[1,0.5]];portConstraint=eastwest;" vertex="1" parent="FVcaYwHXagqDAu146TD7-459">
          <mxGeometry y="30" width="150" height="40" as="geometry" />
        </mxCell>
        <mxCell id="FVcaYwHXagqDAu146TD7-461" value="product_id" style="shape=partialRectangle;html=1;whiteSpace=wrap;connectable=0;strokeColor=inherit;overflow=hidden;fillColor=none;top=0;left=0;bottom=0;right=0;pointerEvents=1;" vertex="1" parent="FVcaYwHXagqDAu146TD7-460">
          <mxGeometry width="150" height="40" as="geometry">
            <mxRectangle width="150" height="40" as="alternateBounds" />
          </mxGeometry>
        </mxCell>
        <mxCell id="FVcaYwHXagqDAu146TD7-462" value="" style="shape=tableRow;horizontal=0;startSize=0;swimlaneHead=0;swimlaneBody=0;strokeColor=inherit;top=0;left=0;bottom=0;right=0;collapsible=0;dropTarget=0;fillColor=none;points=[[0,0.5],[1,0.5]];portConstraint=eastwest;" vertex="1" parent="FVcaYwHXagqDAu146TD7-459">
          <mxGeometry y="70" width="150" height="40" as="geometry" />
        </mxCell>
        <mxCell id="FVcaYwHXagqDAu146TD7-463" value="name" style="shape=partialRectangle;html=1;whiteSpace=wrap;connectable=0;strokeColor=inherit;overflow=hidden;fillColor=none;top=0;left=0;bottom=0;right=0;pointerEvents=1;" vertex="1" parent="FVcaYwHXagqDAu146TD7-462">
          <mxGeometry width="150" height="40" as="geometry">
            <mxRectangle width="150" height="40" as="alternateBounds" />
          </mxGeometry>
        </mxCell>
        <mxCell id="FVcaYwHXagqDAu146TD7-464" value="" style="shape=tableRow;horizontal=0;startSize=0;swimlaneHead=0;swimlaneBody=0;strokeColor=inherit;top=0;left=0;bottom=0;right=0;collapsible=0;dropTarget=0;fillColor=none;points=[[0,0.5],[1,0.5]];portConstraint=eastwest;" vertex="1" parent="FVcaYwHXagqDAu146TD7-459">
          <mxGeometry y="110" width="150" height="40" as="geometry" />
        </mxCell>
        <mxCell id="FVcaYwHXagqDAu146TD7-465" value="added_by" style="shape=partialRectangle;html=1;whiteSpace=wrap;connectable=0;strokeColor=inherit;overflow=hidden;fillColor=none;top=0;left=0;bottom=0;right=0;pointerEvents=1;" vertex="1" parent="FVcaYwHXagqDAu146TD7-464">
          <mxGeometry width="150" height="40" as="geometry">
            <mxRectangle width="150" height="40" as="alternateBounds" />
          </mxGeometry>
        </mxCell>
        <mxCell id="FVcaYwHXagqDAu146TD7-556" style="shape=tableRow;horizontal=0;startSize=0;swimlaneHead=0;swimlaneBody=0;strokeColor=inherit;top=0;left=0;bottom=0;right=0;collapsible=0;dropTarget=0;fillColor=none;points=[[0,0.5],[1,0.5]];portConstraint=eastwest;" vertex="1" parent="FVcaYwHXagqDAu146TD7-459">
          <mxGeometry y="150" width="150" height="40" as="geometry" />
        </mxCell>
        <mxCell id="FVcaYwHXagqDAu146TD7-557" value="category_id" style="shape=partialRectangle;html=1;whiteSpace=wrap;connectable=0;strokeColor=inherit;overflow=hidden;fillColor=none;top=0;left=0;bottom=0;right=0;pointerEvents=1;" vertex="1" parent="FVcaYwHXagqDAu146TD7-556">
          <mxGeometry width="150" height="40" as="geometry">
            <mxRectangle width="150" height="40" as="alternateBounds" />
          </mxGeometry>
        </mxCell>
        <mxCell id="FVcaYwHXagqDAu146TD7-466" value="" style="shape=tableRow;horizontal=0;startSize=0;swimlaneHead=0;swimlaneBody=0;strokeColor=inherit;top=0;left=0;bottom=0;right=0;collapsible=0;dropTarget=0;fillColor=none;points=[[0,0.5],[1,0.5]];portConstraint=eastwest;" vertex="1" parent="FVcaYwHXagqDAu146TD7-459">
          <mxGeometry y="190" width="150" height="40" as="geometry" />
        </mxCell>
        <mxCell id="FVcaYwHXagqDAu146TD7-467" value="creation_date" style="shape=partialRectangle;html=1;whiteSpace=wrap;connectable=0;strokeColor=inherit;overflow=hidden;fillColor=none;top=0;left=0;bottom=0;right=0;pointerEvents=1;" vertex="1" parent="FVcaYwHXagqDAu146TD7-466">
          <mxGeometry width="150" height="40" as="geometry">
            <mxRectangle width="150" height="40" as="alternateBounds" />
          </mxGeometry>
        </mxCell>
        <mxCell id="FVcaYwHXagqDAu146TD7-468" value="" style="shape=tableRow;horizontal=0;startSize=0;swimlaneHead=0;swimlaneBody=0;strokeColor=inherit;top=0;left=0;bottom=0;right=0;collapsible=0;dropTarget=0;fillColor=none;points=[[0,0.5],[1,0.5]];portConstraint=eastwest;" vertex="1" parent="FVcaYwHXagqDAu146TD7-459">
          <mxGeometry y="230" width="150" height="40" as="geometry" />
        </mxCell>
        <mxCell id="FVcaYwHXagqDAu146TD7-469" value="price" style="shape=partialRectangle;html=1;whiteSpace=wrap;connectable=0;strokeColor=inherit;overflow=hidden;fillColor=none;top=0;left=0;bottom=0;right=0;pointerEvents=1;" vertex="1" parent="FVcaYwHXagqDAu146TD7-468">
          <mxGeometry width="150" height="40" as="geometry">
            <mxRectangle width="150" height="40" as="alternateBounds" />
          </mxGeometry>
        </mxCell>
        <mxCell id="FVcaYwHXagqDAu146TD7-470" value="" style="shape=tableRow;horizontal=0;startSize=0;swimlaneHead=0;swimlaneBody=0;strokeColor=inherit;top=0;left=0;bottom=0;right=0;collapsible=0;dropTarget=0;fillColor=none;points=[[0,0.5],[1,0.5]];portConstraint=eastwest;" vertex="1" parent="FVcaYwHXagqDAu146TD7-459">
          <mxGeometry y="270" width="150" height="40" as="geometry" />
        </mxCell>
        <mxCell id="FVcaYwHXagqDAu146TD7-471" value="campaign_id" style="shape=partialRectangle;html=1;whiteSpace=wrap;connectable=0;strokeColor=inherit;overflow=hidden;fillColor=none;top=0;left=0;bottom=0;right=0;pointerEvents=1;" vertex="1" parent="FVcaYwHXagqDAu146TD7-470">
          <mxGeometry width="150" height="40" as="geometry">
            <mxRectangle width="150" height="40" as="alternateBounds" />
          </mxGeometry>
        </mxCell>
        <mxCell id="FVcaYwHXagqDAu146TD7-472" value="" style="shape=tableRow;horizontal=0;startSize=0;swimlaneHead=0;swimlaneBody=0;strokeColor=inherit;top=0;left=0;bottom=0;right=0;collapsible=0;dropTarget=0;fillColor=none;points=[[0,0.5],[1,0.5]];portConstraint=eastwest;" vertex="1" parent="FVcaYwHXagqDAu146TD7-459">
          <mxGeometry y="310" width="150" height="40" as="geometry" />
        </mxCell>
        <mxCell id="FVcaYwHXagqDAu146TD7-473" value="call_to_action" style="shape=partialRectangle;html=1;whiteSpace=wrap;connectable=0;strokeColor=inherit;overflow=hidden;fillColor=none;top=0;left=0;bottom=0;right=0;pointerEvents=1;" vertex="1" parent="FVcaYwHXagqDAu146TD7-472">
          <mxGeometry width="150" height="40" as="geometry">
            <mxRectangle width="150" height="40" as="alternateBounds" />
          </mxGeometry>
        </mxCell>
        <mxCell id="FVcaYwHXagqDAu146TD7-474" value="" style="shape=tableRow;horizontal=0;startSize=0;swimlaneHead=0;swimlaneBody=0;strokeColor=inherit;top=0;left=0;bottom=0;right=0;collapsible=0;dropTarget=0;fillColor=none;points=[[0,0.5],[1,0.5]];portConstraint=eastwest;" vertex="1" parent="FVcaYwHXagqDAu146TD7-459">
          <mxGeometry y="350" width="150" height="40" as="geometry" />
        </mxCell>
        <mxCell id="FVcaYwHXagqDAu146TD7-475" value="description" style="shape=partialRectangle;html=1;whiteSpace=wrap;connectable=0;strokeColor=inherit;overflow=hidden;fillColor=none;top=0;left=0;bottom=0;right=0;pointerEvents=1;" vertex="1" parent="FVcaYwHXagqDAu146TD7-474">
          <mxGeometry width="150" height="40" as="geometry">
            <mxRectangle width="150" height="40" as="alternateBounds" />
          </mxGeometry>
        </mxCell>
        <mxCell id="FVcaYwHXagqDAu146TD7-476" value="" style="shape=tableRow;horizontal=0;startSize=0;swimlaneHead=0;swimlaneBody=0;strokeColor=inherit;top=0;left=0;bottom=0;right=0;collapsible=0;dropTarget=0;fillColor=none;points=[[0,0.5],[1,0.5]];portConstraint=eastwest;" vertex="1" parent="FVcaYwHXagqDAu146TD7-459">
          <mxGeometry y="390" width="150" height="40" as="geometry" />
        </mxCell>
        <mxCell id="FVcaYwHXagqDAu146TD7-477" value="main_photo_id" style="shape=partialRectangle;html=1;whiteSpace=wrap;connectable=0;strokeColor=inherit;overflow=hidden;fillColor=none;top=0;left=0;bottom=0;right=0;pointerEvents=1;" vertex="1" parent="FVcaYwHXagqDAu146TD7-476">
          <mxGeometry width="150" height="40" as="geometry">
            <mxRectangle width="150" height="40" as="alternateBounds" />
          </mxGeometry>
        </mxCell>
        <mxCell id="FVcaYwHXagqDAu146TD7-478" value="" style="shape=tableRow;horizontal=0;startSize=0;swimlaneHead=0;swimlaneBody=0;strokeColor=inherit;top=0;left=0;bottom=0;right=0;collapsible=0;dropTarget=0;fillColor=none;points=[[0,0.5],[1,0.5]];portConstraint=eastwest;" vertex="1" parent="FVcaYwHXagqDAu146TD7-459">
          <mxGeometry y="430" width="150" height="40" as="geometry" />
        </mxCell>
        <mxCell id="FVcaYwHXagqDAu146TD7-479" value="photos_ids" style="shape=partialRectangle;html=1;whiteSpace=wrap;connectable=0;strokeColor=inherit;overflow=hidden;fillColor=none;top=0;left=0;bottom=0;right=0;pointerEvents=1;" vertex="1" parent="FVcaYwHXagqDAu146TD7-478">
          <mxGeometry width="150" height="40" as="geometry">
            <mxRectangle width="150" height="40" as="alternateBounds" />
          </mxGeometry>
        </mxCell>
        <mxCell id="FVcaYwHXagqDAu146TD7-480" value="" style="shape=tableRow;horizontal=0;startSize=0;swimlaneHead=0;swimlaneBody=0;strokeColor=inherit;top=0;left=0;bottom=0;right=0;collapsible=0;dropTarget=0;fillColor=none;points=[[0,0.5],[1,0.5]];portConstraint=eastwest;" vertex="1" parent="FVcaYwHXagqDAu146TD7-459">
          <mxGeometry y="470" width="150" height="40" as="geometry" />
        </mxCell>
        <mxCell id="FVcaYwHXagqDAu146TD7-481" value="comment_ids" style="shape=partialRectangle;html=1;whiteSpace=wrap;connectable=0;strokeColor=inherit;overflow=hidden;fillColor=none;top=0;left=0;bottom=0;right=0;pointerEvents=1;" vertex="1" parent="FVcaYwHXagqDAu146TD7-480">
          <mxGeometry width="150" height="40" as="geometry">
            <mxRectangle width="150" height="40" as="alternateBounds" />
          </mxGeometry>
        </mxCell>
        <mxCell id="FVcaYwHXagqDAu146TD7-482" value="" style="shape=tableRow;horizontal=0;startSize=0;swimlaneHead=0;swimlaneBody=0;strokeColor=inherit;top=0;left=0;bottom=0;right=0;collapsible=0;dropTarget=0;fillColor=none;points=[[0,0.5],[1,0.5]];portConstraint=eastwest;" vertex="1" parent="FVcaYwHXagqDAu146TD7-459">
          <mxGeometry y="510" width="150" height="40" as="geometry" />
        </mxCell>
        <mxCell id="FVcaYwHXagqDAu146TD7-483" value="views" style="shape=partialRectangle;html=1;whiteSpace=wrap;connectable=0;strokeColor=inherit;overflow=hidden;fillColor=none;top=0;left=0;bottom=0;right=0;pointerEvents=1;" vertex="1" parent="FVcaYwHXagqDAu146TD7-482">
          <mxGeometry width="150" height="40" as="geometry">
            <mxRectangle width="150" height="40" as="alternateBounds" />
          </mxGeometry>
        </mxCell>
        <mxCell id="FVcaYwHXagqDAu146TD7-484" value="" style="shape=tableRow;horizontal=0;startSize=0;swimlaneHead=0;swimlaneBody=0;strokeColor=inherit;top=0;left=0;bottom=0;right=0;collapsible=0;dropTarget=0;fillColor=none;points=[[0,0.5],[1,0.5]];portConstraint=eastwest;" vertex="1" parent="FVcaYwHXagqDAu146TD7-459">
          <mxGeometry y="550" width="150" height="40" as="geometry" />
        </mxCell>
        <mxCell id="FVcaYwHXagqDAu146TD7-485" value="selling_numbers" style="shape=partialRectangle;html=1;whiteSpace=wrap;connectable=0;strokeColor=inherit;overflow=hidden;fillColor=none;top=0;left=0;bottom=0;right=0;pointerEvents=1;" vertex="1" parent="FVcaYwHXagqDAu146TD7-484">
          <mxGeometry width="150" height="40" as="geometry">
            <mxRectangle width="150" height="40" as="alternateBounds" />
          </mxGeometry>
        </mxCell>
        <mxCell id="FVcaYwHXagqDAu146TD7-486" value="" style="shape=tableRow;horizontal=0;startSize=0;swimlaneHead=0;swimlaneBody=0;strokeColor=inherit;top=0;left=0;bottom=0;right=0;collapsible=0;dropTarget=0;fillColor=none;points=[[0,0.5],[1,0.5]];portConstraint=eastwest;" vertex="1" parent="FVcaYwHXagqDAu146TD7-459">
          <mxGeometry y="590" width="150" height="40" as="geometry" />
        </mxCell>
        <mxCell id="FVcaYwHXagqDAu146TD7-487" value="product_score" style="shape=partialRectangle;html=1;whiteSpace=wrap;connectable=0;strokeColor=inherit;overflow=hidden;fillColor=none;top=0;left=0;bottom=0;right=0;pointerEvents=1;" vertex="1" parent="FVcaYwHXagqDAu146TD7-486">
          <mxGeometry width="150" height="40" as="geometry">
            <mxRectangle width="150" height="40" as="alternateBounds" />
          </mxGeometry>
        </mxCell>
        <mxCell id="FVcaYwHXagqDAu146TD7-523" value="Table" style="shape=table;startSize=30;container=1;collapsible=0;childLayout=tableLayout;fontStyle=1" vertex="1" parent="1">
          <mxGeometry x="773" y="-610" width="60" height="230" as="geometry" />
        </mxCell>
        <mxCell id="FVcaYwHXagqDAu146TD7-524" value="" style="shape=tableRow;horizontal=0;startSize=0;swimlaneHead=0;swimlaneBody=0;strokeColor=inherit;top=0;left=0;bottom=0;right=0;collapsible=0;dropTarget=0;fillColor=none;points=[[0,0.5],[1,0.5]];portConstraint=eastwest;fontStyle=1" vertex="1" parent="FVcaYwHXagqDAu146TD7-523">
          <mxGeometry y="30" width="60" height="40" as="geometry" />
        </mxCell>
        <mxCell id="FVcaYwHXagqDAu146TD7-525" value="" style="shape=partialRectangle;html=1;whiteSpace=wrap;connectable=0;strokeColor=inherit;overflow=hidden;fillColor=none;top=0;left=0;bottom=0;right=0;pointerEvents=1;fontStyle=1" vertex="1" parent="FVcaYwHXagqDAu146TD7-524">
          <mxGeometry width="60" height="40" as="geometry">
            <mxRectangle width="60" height="40" as="alternateBounds" />
          </mxGeometry>
        </mxCell>
        <mxCell id="FVcaYwHXagqDAu146TD7-526" value="" style="shape=tableRow;horizontal=0;startSize=0;swimlaneHead=0;swimlaneBody=0;strokeColor=inherit;top=0;left=0;bottom=0;right=0;collapsible=0;dropTarget=0;fillColor=none;points=[[0,0.5],[1,0.5]];portConstraint=eastwest;fontStyle=1" vertex="1" parent="FVcaYwHXagqDAu146TD7-523">
          <mxGeometry y="70" width="60" height="40" as="geometry" />
        </mxCell>
        <mxCell id="FVcaYwHXagqDAu146TD7-527" value="" style="shape=partialRectangle;html=1;whiteSpace=wrap;connectable=0;strokeColor=inherit;overflow=hidden;fillColor=none;top=0;left=0;bottom=0;right=0;pointerEvents=1;fontStyle=1" vertex="1" parent="FVcaYwHXagqDAu146TD7-526">
          <mxGeometry width="60" height="40" as="geometry">
            <mxRectangle width="60" height="40" as="alternateBounds" />
          </mxGeometry>
        </mxCell>
        <mxCell id="FVcaYwHXagqDAu146TD7-528" value="" style="shape=tableRow;horizontal=0;startSize=0;swimlaneHead=0;swimlaneBody=0;strokeColor=inherit;top=0;left=0;bottom=0;right=0;collapsible=0;dropTarget=0;fillColor=none;points=[[0,0.5],[1,0.5]];portConstraint=eastwest;fontStyle=1" vertex="1" parent="FVcaYwHXagqDAu146TD7-523">
          <mxGeometry y="110" width="60" height="40" as="geometry" />
        </mxCell>
        <mxCell id="FVcaYwHXagqDAu146TD7-529" value="" style="shape=partialRectangle;html=1;whiteSpace=wrap;connectable=0;strokeColor=inherit;overflow=hidden;fillColor=none;top=0;left=0;bottom=0;right=0;pointerEvents=1;fontStyle=1" vertex="1" parent="FVcaYwHXagqDAu146TD7-528">
          <mxGeometry width="60" height="40" as="geometry">
            <mxRectangle width="60" height="40" as="alternateBounds" />
          </mxGeometry>
        </mxCell>
        <mxCell id="FVcaYwHXagqDAu146TD7-530" value="" style="shape=tableRow;horizontal=0;startSize=0;swimlaneHead=0;swimlaneBody=0;strokeColor=inherit;top=0;left=0;bottom=0;right=0;collapsible=0;dropTarget=0;fillColor=none;points=[[0,0.5],[1,0.5]];portConstraint=eastwest;fontStyle=1" vertex="1" parent="FVcaYwHXagqDAu146TD7-523">
          <mxGeometry y="150" width="60" height="40" as="geometry" />
        </mxCell>
        <mxCell id="FVcaYwHXagqDAu146TD7-531" value="" style="shape=partialRectangle;html=1;whiteSpace=wrap;connectable=0;strokeColor=inherit;overflow=hidden;fillColor=none;top=0;left=0;bottom=0;right=0;pointerEvents=1;fontStyle=1" vertex="1" parent="FVcaYwHXagqDAu146TD7-530">
          <mxGeometry width="60" height="40" as="geometry">
            <mxRectangle width="60" height="40" as="alternateBounds" />
          </mxGeometry>
        </mxCell>
        <mxCell id="FVcaYwHXagqDAu146TD7-532" value="" style="shape=tableRow;horizontal=0;startSize=0;swimlaneHead=0;swimlaneBody=0;strokeColor=inherit;top=0;left=0;bottom=0;right=0;collapsible=0;dropTarget=0;fillColor=none;points=[[0,0.5],[1,0.5]];portConstraint=eastwest;fontStyle=1" vertex="1" parent="FVcaYwHXagqDAu146TD7-523">
          <mxGeometry y="190" width="60" height="40" as="geometry" />
        </mxCell>
        <mxCell id="FVcaYwHXagqDAu146TD7-533" value="" style="shape=partialRectangle;html=1;whiteSpace=wrap;connectable=0;strokeColor=inherit;overflow=hidden;fillColor=none;top=0;left=0;bottom=0;right=0;pointerEvents=1;fontStyle=1" vertex="1" parent="FVcaYwHXagqDAu146TD7-532">
          <mxGeometry width="60" height="40" as="geometry">
            <mxRectangle width="60" height="40" as="alternateBounds" />
          </mxGeometry>
        </mxCell>
        <mxCell id="FVcaYwHXagqDAu146TD7-534" value="Pages" style="shape=table;startSize=30;container=1;collapsible=0;childLayout=tableLayout;fillColor=light-dark(#FFF2CC,#0000FF);gradientColor=#ffd966;strokeColor=#d6b656;" vertex="1" parent="1">
          <mxGeometry x="-869" y="-641" width="89" height="190" as="geometry" />
        </mxCell>
        <mxCell id="FVcaYwHXagqDAu146TD7-535" value="" style="shape=tableRow;horizontal=0;startSize=0;swimlaneHead=0;swimlaneBody=0;strokeColor=inherit;top=0;left=0;bottom=0;right=0;collapsible=0;dropTarget=0;fillColor=none;points=[[0,0.5],[1,0.5]];portConstraint=eastwest;" vertex="1" parent="FVcaYwHXagqDAu146TD7-534">
          <mxGeometry y="30" width="89" height="40" as="geometry" />
        </mxCell>
        <mxCell id="FVcaYwHXagqDAu146TD7-536" value="page_id" style="shape=partialRectangle;html=1;whiteSpace=wrap;connectable=0;strokeColor=inherit;overflow=hidden;fillColor=none;top=0;left=0;bottom=0;right=0;pointerEvents=1;" vertex="1" parent="FVcaYwHXagqDAu146TD7-535">
          <mxGeometry width="89" height="40" as="geometry">
            <mxRectangle width="89" height="40" as="alternateBounds" />
          </mxGeometry>
        </mxCell>
        <mxCell id="FVcaYwHXagqDAu146TD7-537" value="" style="shape=tableRow;horizontal=0;startSize=0;swimlaneHead=0;swimlaneBody=0;strokeColor=inherit;top=0;left=0;bottom=0;right=0;collapsible=0;dropTarget=0;fillColor=none;points=[[0,0.5],[1,0.5]];portConstraint=eastwest;" vertex="1" parent="FVcaYwHXagqDAu146TD7-534">
          <mxGeometry y="70" width="89" height="40" as="geometry" />
        </mxCell>
        <mxCell id="FVcaYwHXagqDAu146TD7-538" value="created_by" style="shape=partialRectangle;html=1;whiteSpace=wrap;connectable=0;strokeColor=inherit;overflow=hidden;fillColor=none;top=0;left=0;bottom=0;right=0;pointerEvents=1;" vertex="1" parent="FVcaYwHXagqDAu146TD7-537">
          <mxGeometry width="89" height="40" as="geometry">
            <mxRectangle width="89" height="40" as="alternateBounds" />
          </mxGeometry>
        </mxCell>
        <mxCell id="FVcaYwHXagqDAu146TD7-560" style="shape=tableRow;horizontal=0;startSize=0;swimlaneHead=0;swimlaneBody=0;strokeColor=inherit;top=0;left=0;bottom=0;right=0;collapsible=0;dropTarget=0;fillColor=none;points=[[0,0.5],[1,0.5]];portConstraint=eastwest;" vertex="1" parent="FVcaYwHXagqDAu146TD7-534">
          <mxGeometry y="110" width="89" height="40" as="geometry" />
        </mxCell>
        <mxCell id="FVcaYwHXagqDAu146TD7-561" value="role" style="shape=partialRectangle;html=1;whiteSpace=wrap;connectable=0;strokeColor=inherit;overflow=hidden;fillColor=none;top=0;left=0;bottom=0;right=0;pointerEvents=1;" vertex="1" parent="FVcaYwHXagqDAu146TD7-560">
          <mxGeometry width="89" height="40" as="geometry">
            <mxRectangle width="89" height="40" as="alternateBounds" />
          </mxGeometry>
        </mxCell>
        <mxCell id="FVcaYwHXagqDAu146TD7-539" value="" style="shape=tableRow;horizontal=0;startSize=0;swimlaneHead=0;swimlaneBody=0;strokeColor=inherit;top=0;left=0;bottom=0;right=0;collapsible=0;dropTarget=0;fillColor=none;points=[[0,0.5],[1,0.5]];portConstraint=eastwest;" vertex="1" parent="FVcaYwHXagqDAu146TD7-534">
          <mxGeometry y="150" width="89" height="40" as="geometry" />
        </mxCell>
        <mxCell id="FVcaYwHXagqDAu146TD7-540" value="description" style="shape=partialRectangle;html=1;whiteSpace=wrap;connectable=0;strokeColor=inherit;overflow=hidden;fillColor=none;top=0;left=0;bottom=0;right=0;pointerEvents=1;" vertex="1" parent="FVcaYwHXagqDAu146TD7-539">
          <mxGeometry width="89" height="40" as="geometry">
            <mxRectangle width="89" height="40" as="alternateBounds" />
          </mxGeometry>
        </mxCell>
        <mxCell id="FVcaYwHXagqDAu146TD7-545" value="Categories" style="shape=table;startSize=30;container=1;collapsible=0;childLayout=tableLayout;fillColor=light-dark(#F8CECC,#0000FF);gradientColor=light-dark(#EA6B66,#00FF80);strokeColor=light-dark(#B85450,#00CC66);fontStyle=1;fontColor=light-dark(#000000,#000000);" vertex="1" parent="1">
          <mxGeometry x="-88" y="-1330" width="89" height="150" as="geometry" />
        </mxCell>
        <mxCell id="FVcaYwHXagqDAu146TD7-546" value="" style="shape=tableRow;horizontal=0;startSize=0;swimlaneHead=0;swimlaneBody=0;strokeColor=inherit;top=0;left=0;bottom=0;right=0;collapsible=0;dropTarget=0;fillColor=none;points=[[0,0.5],[1,0.5]];portConstraint=eastwest;" vertex="1" parent="FVcaYwHXagqDAu146TD7-545">
          <mxGeometry y="30" width="89" height="40" as="geometry" />
        </mxCell>
        <mxCell id="FVcaYwHXagqDAu146TD7-547" value="category_id" style="shape=partialRectangle;html=1;whiteSpace=wrap;connectable=0;strokeColor=inherit;overflow=hidden;fillColor=none;top=0;left=0;bottom=0;right=0;pointerEvents=1;" vertex="1" parent="FVcaYwHXagqDAu146TD7-546">
          <mxGeometry width="89" height="40" as="geometry">
            <mxRectangle width="89" height="40" as="alternateBounds" />
          </mxGeometry>
        </mxCell>
        <mxCell id="FVcaYwHXagqDAu146TD7-548" value="" style="shape=tableRow;horizontal=0;startSize=0;swimlaneHead=0;swimlaneBody=0;strokeColor=inherit;top=0;left=0;bottom=0;right=0;collapsible=0;dropTarget=0;fillColor=none;points=[[0,0.5],[1,0.5]];portConstraint=eastwest;" vertex="1" parent="FVcaYwHXagqDAu146TD7-545">
          <mxGeometry y="70" width="89" height="40" as="geometry" />
        </mxCell>
        <mxCell id="FVcaYwHXagqDAu146TD7-549" value="created_by" style="shape=partialRectangle;html=1;whiteSpace=wrap;connectable=0;strokeColor=inherit;overflow=hidden;fillColor=none;top=0;left=0;bottom=0;right=0;pointerEvents=1;" vertex="1" parent="FVcaYwHXagqDAu146TD7-548">
          <mxGeometry width="89" height="40" as="geometry">
            <mxRectangle width="89" height="40" as="alternateBounds" />
          </mxGeometry>
        </mxCell>
        <mxCell id="FVcaYwHXagqDAu146TD7-550" value="" style="shape=tableRow;horizontal=0;startSize=0;swimlaneHead=0;swimlaneBody=0;strokeColor=inherit;top=0;left=0;bottom=0;right=0;collapsible=0;dropTarget=0;fillColor=none;points=[[0,0.5],[1,0.5]];portConstraint=eastwest;" vertex="1" parent="FVcaYwHXagqDAu146TD7-545">
          <mxGeometry y="110" width="89" height="40" as="geometry" />
        </mxCell>
        <mxCell id="FVcaYwHXagqDAu146TD7-551" value="description" style="shape=partialRectangle;html=1;whiteSpace=wrap;connectable=0;strokeColor=inherit;overflow=hidden;fillColor=none;top=0;left=0;bottom=0;right=0;pointerEvents=1;" vertex="1" parent="FVcaYwHXagqDAu146TD7-550">
          <mxGeometry width="89" height="40" as="geometry">
            <mxRectangle width="89" height="40" as="alternateBounds" />
          </mxGeometry>
        </mxCell>
        <mxCell id="FVcaYwHXagqDAu146TD7-558" style="edgeStyle=none;curved=1;rounded=0;orthogonalLoop=1;jettySize=auto;html=1;exitX=0;exitY=0.5;exitDx=0;exitDy=0;entryX=1;entryY=0.5;entryDx=0;entryDy=0;fontSize=12;startSize=8;endSize=8;strokeColor=light-dark(#000000,#00CCCC);" edge="1" parent="1" source="FVcaYwHXagqDAu146TD7-15" target="FVcaYwHXagqDAu146TD7-548">
          <mxGeometry relative="1" as="geometry">
            <Array as="points">
              <mxPoint x="130" y="-718" />
              <mxPoint x="89" y="-893" />
              <mxPoint x="85" y="-1249" />
            </Array>
          </mxGeometry>
        </mxCell>
        <mxCell id="FVcaYwHXagqDAu146TD7-559" style="edgeStyle=none;curved=1;rounded=0;orthogonalLoop=1;jettySize=auto;html=1;exitX=0;exitY=0.5;exitDx=0;exitDy=0;entryX=1;entryY=0.5;entryDx=0;entryDy=0;fontSize=12;startSize=8;endSize=8;strokeColor=light-dark(#000000,#00FF80);" edge="1" parent="1" source="FVcaYwHXagqDAu146TD7-546" target="FVcaYwHXagqDAu146TD7-556">
          <mxGeometry relative="1" as="geometry">
            <Array as="points">
              <mxPoint x="-151" y="-1283" />
              <mxPoint x="-151" y="-1175" />
            </Array>
          </mxGeometry>
        </mxCell>
      </root>
    </mxGraphModel>
  </diagram>
</mxfile>
